<svg width="28" height="16" viewBox="0 0 28 16" fill="none" xmlns="http://www.w3.org/2000/svg">
<path d="M27.4166 1.16667H9.91659C9.56659 1.16667 9.33325 0.933334 9.33325 0.583333C9.33325 0.233333 9.56659 0 9.91659 0H27.4166C27.7666 0 27.9999 0.233333 27.9999 0.583333C27.9999 0.933334 27.7666 1.16667 27.4166 1.16667Z" fill="#161B25"/>
<path d="M27.4166 8.16667H9.91659C9.56659 8.16667 9.33325 7.93333 9.33325 7.58333C9.33325 7.23333 9.56659 7 9.91659 7H27.4166C27.7666 7 27.9999 7.23333 27.9999 7.58333C27.9999 7.93333 27.7666 8.16667 27.4166 8.16667Z" fill="#161B25"/>
<path d="M27.4166 15.1667H9.91659C9.56659 15.1667 9.33325 14.9333 9.33325 14.5833C9.33325 14.2333 9.56659 14 9.91659 14H27.4166C27.7666 14 27.9999 14.2333 27.9999 14.5833C27.9999 14.9333 27.7666 15.1667 27.4166 15.1667Z" fill="#161B25"/>
<path d="M4.31667 12.133C4.14167 12.133 4.025 12.0747 3.90833 11.958L0 7.58305L3.90833 3.03305C4.14167 2.79971 4.49167 2.74138 4.725 2.97471C4.95833 3.20805 5.01667 3.55805 4.78333 3.79138L1.51667 7.58305L4.725 11.1997C4.95833 11.433 4.9 11.783 4.66667 12.0164C4.60833 12.0747 4.49167 12.133 4.31667 12.133Z" fill="#161B25"/>
</svg>
