<svg width="21" height="21" viewBox="0 0 21 21" fill="none" xmlns="http://www.w3.org/2000/svg">
<path d="M17.3176 6.75L16.7968 15.61C16.7687 16.0875 16.5592 16.5363 16.2111 16.8644C15.863 17.1925 15.4027 17.3752 14.9243 17.375H5.96096C5.4826 17.3752 5.02225 17.1925 4.67415 16.8644C4.32605 16.5363 4.11652 16.0875 4.08846 15.61L3.56763 6.75M10.4426 9.25V14.875M10.4426 14.875L7.94263 12.375M10.4426 14.875L12.9426 12.375M3.25513 6.75H17.6301C18.1476 6.75 18.5676 6.33 18.5676 5.8125V4.5625C18.5676 4.045 18.1476 3.625 17.6301 3.625H3.25513C2.73763 3.625 2.31763 4.045 2.31763 4.5625V5.8125C2.31763 6.33 2.73763 6.75 3.25513 6.75Z" stroke="#161B25" stroke-width="1.5" stroke-linecap="round" stroke-linejoin="round"/>
</svg>
