<svg width="16" height="16" viewBox="0 0 16 16" fill="none" xmlns="http://www.w3.org/2000/svg">
<path d="M10.5863 0.437992C11.4694 0.437928 12.3333 0.695608 13.0721 1.17943C13.8108 1.66324 14.3923 2.35216 14.7452 3.16168C15.0981 3.9712 15.2071 4.86612 15.0587 5.73666C14.9104 6.60721 14.5112 7.41553 13.9101 8.06248L13.7664 8.20916L7.16796 14.8076L7.12788 14.8454L7.08554 14.8795C6.54802 15.3428 5.85523 15.586 5.14602 15.5601C4.4368 15.5343 3.76356 15.2413 3.26121 14.74C2.75886 14.2387 2.46452 13.5661 2.43717 12.8569C2.40983 12.1478 2.6515 11.4545 3.11376 10.916L3.22642 10.792L3.23776 10.7837L8.74971 5.26114C8.89139 5.11916 9.08366 5.03928 9.28423 5.03907C9.4848 5.03886 9.67724 5.11833 9.81921 5.26C9.96119 5.40168 10.0411 5.59395 10.0413 5.79452C10.0415 5.99509 9.96202 6.18753 9.82035 6.3295L4.3084 11.852L4.29932 11.8581C4.07685 12.0957 3.95149 12.408 3.94797 12.7334C3.94445 13.0589 4.06302 13.3738 4.28029 13.6162C4.49756 13.8585 4.79776 14.0106 5.12167 14.0425C5.44558 14.0744 5.76968 13.9837 6.03003 13.7884L6.12227 13.7128L6.12303 13.7136L12.7026 7.1355L12.8228 7.01075C13.3522 6.4289 13.634 5.6637 13.6085 4.8775C13.583 4.09129 13.2522 3.34595 12.6863 2.7996C12.1204 2.25326 11.3639 1.94889 10.5773 1.95109C9.79065 1.95329 9.03584 2.26188 8.47298 2.81138L8.35579 2.93236L8.34218 2.94143L1.29081 9.99582C1.22056 10.066 1.13717 10.1217 1.04541 10.1597C0.953642 10.1976 0.855296 10.2172 0.755983 10.2171C0.656671 10.2171 0.558338 10.1975 0.466599 10.1595C0.37486 10.1214 0.291511 10.0657 0.221312 9.99544C0.151112 9.92519 0.0954367 9.84181 0.057464 9.75004C0.0194913 9.65827 -3.50578e-05 9.55993 4.72507e-08 9.46062C7.09451e-05 9.26005 0.0798152 9.06772 0.22169 8.92594L7.25945 1.88441L7.29423 1.85189C7.71781 1.40454 8.22828 1.04839 8.79436 0.805261C9.36044 0.562136 9.9702 0.437161 10.5863 0.437992Z" fill="white"/>
</svg>
