<svg width="20" height="20" viewBox="0 0 20 20" fill="none" xmlns="http://www.w3.org/2000/svg">
<path d="M6.6665 7.49984C6.6665 7.96007 7.0396 8.33317 7.49984 8.33317C7.96007 8.33317 8.33317 7.96007 8.33317 7.49984C8.33317 7.0396 7.96007 6.6665 7.49984 6.6665C7.0396 6.6665 6.6665 7.0396 6.6665 7.49984Z" fill="#6F7782"/>
<path d="M11.6665 12.4998C11.6665 12.9601 12.0396 13.3332 12.4998 13.3332C12.9601 13.3332 13.3332 12.9601 13.3332 12.4998C13.3332 12.0396 12.9601 11.6665 12.4998 11.6665C12.0396 11.6665 11.6665 12.0396 11.6665 12.4998Z" fill="#6F7782"/>
<path d="M6.96967 11.9697C6.67678 12.2626 6.67678 12.7374 6.96967 13.0303C7.26256 13.3232 7.73744 13.3232 8.03033 13.0303L6.96967 11.9697ZM12.7444 8.31628C13.0373 8.02339 13.0373 7.54852 12.7444 7.25562C12.4515 6.96273 11.9766 6.96273 11.6837 7.25562L12.7444 8.31628ZM4.21756 16.7042L4.6584 16.0975L4.21756 16.7042ZM3.29576 15.7824L3.90253 15.3416L3.29576 15.7824ZM16.7042 15.7824L16.0975 15.3416L16.7042 15.7824ZM15.7824 16.7042L15.3416 16.0975L15.7824 16.7042ZM15.7824 3.29576L15.3416 3.90253L15.7824 3.29576ZM16.7042 4.21756L16.0975 4.6584L16.7042 4.21756ZM4.21756 3.29576L4.6584 3.90253L4.21756 3.29576ZM3.29576 4.21756L3.90253 4.6584L3.29576 4.21756ZM8.03033 13.0303L12.7444 8.31628L11.6837 7.25562L6.96967 11.9697L8.03033 13.0303ZM10 16.75C8.42091 16.75 7.29683 16.749 6.4285 16.6549C5.57421 16.5623 5.05688 16.387 4.6584 16.0975L3.77672 17.311C4.47352 17.8173 5.28502 18.0398 6.26693 18.1462C7.23481 18.251 8.45432 18.25 10 18.25V16.75ZM1.75 10C1.75 11.5457 1.74897 12.7652 1.85383 13.7331C1.96022 14.715 2.18275 15.5265 2.689 16.2233L3.90253 15.3416C3.61301 14.9431 3.43766 14.4258 3.34511 13.5715C3.25103 12.7032 3.25 11.5791 3.25 10H1.75ZM4.6584 16.0975C4.36834 15.8867 4.11326 15.6317 3.90253 15.3416L2.689 16.2233C2.99226 16.6407 3.35932 17.0077 3.77672 17.311L4.6584 16.0975ZM16.75 10C16.75 11.5791 16.749 12.7032 16.6549 13.5715C16.5623 14.4258 16.387 14.9431 16.0975 15.3416L17.311 16.2233C17.8173 15.5265 18.0398 14.715 18.1462 13.7331C18.251 12.7652 18.25 11.5457 18.25 10H16.75ZM10 18.25C11.5457 18.25 12.7652 18.251 13.7331 18.1462C14.715 18.0398 15.5265 17.8173 16.2233 17.311L15.3416 16.0975C14.9431 16.387 14.4258 16.5623 13.5715 16.6549C12.7032 16.749 11.5791 16.75 10 16.75V18.25ZM16.0975 15.3416C15.8867 15.6317 15.6317 15.8867 15.3416 16.0975L16.2233 17.311C16.6407 17.0077 17.0077 16.6407 17.311 16.2233L16.0975 15.3416ZM10 3.25C11.5791 3.25 12.7032 3.25103 13.5715 3.34511C14.4258 3.43766 14.9431 3.61301 15.3416 3.90253L16.2233 2.689C15.5265 2.18275 14.715 1.96022 13.7331 1.85383C12.7652 1.74897 11.5457 1.75 10 1.75V3.25ZM18.25 10C18.25 8.45432 18.251 7.23481 18.1462 6.26693C18.0398 5.28502 17.8173 4.47352 17.311 3.77672L16.0975 4.6584C16.387 5.05688 16.5623 5.57421 16.6549 6.4285C16.749 7.29683 16.75 8.42091 16.75 10H18.25ZM15.3416 3.90253C15.6317 4.11326 15.8867 4.36834 16.0975 4.6584L17.311 3.77672C17.0077 3.35932 16.6407 2.99226 16.2233 2.689L15.3416 3.90253ZM10 1.75C8.45432 1.75 7.23481 1.74897 6.26693 1.85383C5.28502 1.96022 4.47352 2.18275 3.77672 2.689L4.6584 3.90253C5.05688 3.61301 5.57421 3.43766 6.4285 3.34511C7.29683 3.25103 8.42091 3.25 10 3.25V1.75ZM3.25 10C3.25 8.42091 3.25103 7.29683 3.34511 6.4285C3.43766 5.57421 3.61301 5.05688 3.90253 4.6584L2.689 3.77672C2.18275 4.47352 1.96022 5.28502 1.85383 6.26693C1.74897 7.23481 1.75 8.45432 1.75 10H3.25ZM3.77672 2.689C3.35932 2.99226 2.99226 3.35932 2.689 3.77672L3.90253 4.6584C4.11326 4.36834 4.36834 4.11326 4.6584 3.90253L3.77672 2.689Z" fill="#6F7782"/>
</svg>
