<svg width="14" height="19" viewBox="0 0 14 19" fill="none" xmlns="http://www.w3.org/2000/svg">
<path d="M9.58342 4.99984C9.58342 6.42657 8.42682 7.58317 7.00008 7.58317V9.08317C9.25525 9.08317 11.0834 7.255 11.0834 4.99984H9.58342ZM7.00008 7.58317C5.57335 7.58317 4.41675 6.42657 4.41675 4.99984H2.91675C2.91675 7.255 4.74492 9.08317 7.00008 9.08317V7.58317ZM4.41675 4.99984C4.41675 3.5731 5.57335 2.4165 7.00008 2.4165V0.916504C4.74492 0.916504 2.91675 2.74467 2.91675 4.99984H4.41675ZM7.00008 2.4165C8.42682 2.4165 9.58342 3.5731 9.58342 4.99984H11.0834C11.0834 2.74467 9.25525 0.916504 7.00008 0.916504V2.4165ZM4.50008 11.5832H9.50008V10.0832H4.50008V11.5832ZM9.50008 16.7498H4.50008V18.2498H9.50008V16.7498ZM4.50008 16.7498C3.07335 16.7498 1.91675 15.5932 1.91675 14.1665H0.416748C0.416748 16.4217 2.24492 18.2498 4.50008 18.2498V16.7498ZM12.0834 14.1665C12.0834 15.5932 10.9268 16.7498 9.50008 16.7498V18.2498C11.7552 18.2498 13.5834 16.4217 13.5834 14.1665H12.0834ZM9.50008 11.5832C10.9268 11.5832 12.0834 12.7398 12.0834 14.1665H13.5834C13.5834 11.9113 11.7552 10.0832 9.50008 10.0832V11.5832ZM4.50008 10.0832C2.24492 10.0832 0.416748 11.9113 0.416748 14.1665H1.91675C1.91675 12.7398 3.07335 11.5832 4.50008 11.5832V10.0832Z" fill="#6F7782"/>
</svg>
