<svg width="20" height="20" viewBox="0 0 20 20" fill="none" xmlns="http://www.w3.org/2000/svg">
<path d="M11.7495 6.4585C11.7495 7.42499 10.966 8.2085 9.99951 8.2085V9.7085C11.7944 9.7085 13.2495 8.25342 13.2495 6.4585H11.7495ZM9.99951 8.2085C9.03301 8.2085 8.24951 7.42499 8.24951 6.4585H6.74951C6.74951 8.25342 8.20459 9.7085 9.99951 9.7085V8.2085ZM8.24951 6.4585C8.24951 5.492 9.03301 4.7085 9.99951 4.7085V3.2085C8.20459 3.2085 6.74951 4.66357 6.74951 6.4585H8.24951ZM9.99951 4.7085C10.966 4.7085 11.7495 5.492 11.7495 6.4585H13.2495C13.2495 4.66357 11.7944 3.2085 9.99951 3.2085V4.7085ZM7.49951 12.2085H12.4995V10.7085H7.49951V12.2085ZM12.4995 15.7085H7.49951V17.2085H12.4995V15.7085ZM7.49951 15.7085C6.53301 15.7085 5.74951 14.925 5.74951 13.9585H4.24951C4.24951 15.7534 5.70459 17.2085 7.49951 17.2085V15.7085ZM14.2495 13.9585C14.2495 14.925 13.466 15.7085 12.4995 15.7085V17.2085C14.2944 17.2085 15.7495 15.7534 15.7495 13.9585H14.2495ZM12.4995 12.2085C13.466 12.2085 14.2495 12.992 14.2495 13.9585H15.7495C15.7495 12.1636 14.2944 10.7085 12.4995 10.7085V12.2085ZM7.49951 10.7085C5.70459 10.7085 4.24951 12.1636 4.24951 13.9585H5.74951C5.74951 12.992 6.53301 12.2085 7.49951 12.2085V10.7085Z" fill="#6F7782"/>
<path d="M6.45979 8.65737C6.32835 8.44622 6.08173 8.3335 5.83301 8.3335C4.79747 8.3335 3.95801 7.49403 3.95801 6.4585C3.95801 5.42296 4.79747 4.5835 5.83301 4.5835C6.08173 4.5835 6.32835 4.47077 6.45979 4.25962C6.4656 4.25028 6.47145 4.24097 6.47734 4.23168C6.69617 3.88625 6.58529 3.39716 6.17884 3.35242C6.06528 3.33991 5.9499 3.3335 5.83301 3.3335C4.10712 3.3335 2.70801 4.73261 2.70801 6.4585C2.70801 8.18439 4.10712 9.5835 5.83301 9.5835C5.9499 9.5835 6.06528 9.57708 6.17884 9.56458C6.5853 9.51983 6.69617 9.03074 6.47734 8.68532C6.47145 8.67603 6.4656 8.66671 6.45979 8.65737Z" fill="#6F7782"/>
<path d="M3.92325 15.2642C3.82865 15.1064 3.66167 15.0002 3.47766 15.0002H3.33301C2.29747 15.0002 1.45801 14.1607 1.45801 13.1252C1.45801 12.0896 2.29747 11.2502 3.33301 11.2502H3.47766C3.66167 11.2502 3.82865 11.1439 3.92325 10.9861C4.15417 10.6008 3.90358 10.0002 3.45442 10.0002H3.33301C1.60712 10.0002 0.208008 11.3993 0.208008 13.1252C0.208008 14.8511 1.60712 16.2502 3.33301 16.2502H3.45442C3.90358 16.2502 4.15417 15.6495 3.92325 15.2642Z" fill="#6F7782"/>
<path d="M13.522 8.68532C13.3032 9.03074 13.4141 9.51983 13.8205 9.56458C13.9341 9.57708 14.0495 9.5835 14.1663 9.5835C15.8922 9.5835 17.2913 8.18439 17.2913 6.4585C17.2913 4.73261 15.8922 3.3335 14.1663 3.3335C14.0495 3.3335 13.9341 3.33991 13.8205 3.35242C13.4141 3.39716 13.3032 3.88625 13.522 4.23168C13.5279 4.24096 13.5337 4.25028 13.5396 4.25962C13.671 4.47077 13.9176 4.5835 14.1663 4.5835C15.2019 4.5835 16.0413 5.42296 16.0413 6.4585C16.0413 7.49403 15.2019 8.3335 14.1663 8.3335C13.9176 8.3335 13.671 8.44622 13.5396 8.65737C13.5337 8.66671 13.5279 8.67603 13.522 8.68532Z" fill="#6F7782"/>
<path d="M16.0761 15.2642C15.8452 15.6495 16.0958 16.2502 16.5449 16.2502H16.6663C18.3922 16.2502 19.7913 14.8511 19.7913 13.1252C19.7913 11.3993 18.3922 10.0002 16.6663 10.0002H16.5449C16.0958 10.0002 15.8452 10.6008 16.0761 10.9861C16.1707 11.1439 16.3377 11.2502 16.5217 11.2502H16.6663C17.7019 11.2502 18.5413 12.0896 18.5413 13.1252C18.5413 14.1607 17.7019 15.0002 16.6663 15.0002H16.5217C16.3377 15.0002 16.1707 15.1064 16.0761 15.2642Z" fill="#6F7782"/>
</svg>
