<svg width="20" height="20" viewBox="0 0 20 20" fill="none" xmlns="http://www.w3.org/2000/svg">
<g clip-path="url(#clip0_703_3766)">
<path d="M17.5748 8.29785C17.5748 8.29785 17.0318 14.6119 16.7168 17.2716C16.5668 18.5419 15.7298 19.2863 14.3588 19.3097C11.7498 19.3538 9.13779 19.3566 6.52979 19.305C5.21079 19.2797 4.38779 18.526 4.24079 17.2782C3.92379 14.595 3.38379 8.29785 3.38379 8.29785" stroke="#F06A6A" stroke-width="1.5" stroke-linecap="round" stroke-linejoin="round"/>
<path d="M18.958 5.271H2" stroke="#F06A6A" stroke-width="1.5" stroke-linecap="round" stroke-linejoin="round"/>
<path d="M15.6901 5.27094C14.9051 5.27094 14.2291 4.75062 14.0751 4.02969L13.8321 2.88969C13.6821 2.36375 13.1741 2 12.5951 2H8.36209C7.78309 2 7.27509 2.36375 7.12509 2.88969L6.88209 4.02969C6.72809 4.75062 6.05209 5.27094 5.26709 5.27094" stroke="#F06A6A" stroke-width="1.5" stroke-linecap="round" stroke-linejoin="round"/>
</g>
<defs>
<clipPath id="clip0_703_3766">
<rect width="20" height="20" fill="white"/>
</clipPath>
</defs>
</svg>
