<svg width="16" height="16" viewBox="0 0 16 16" fill="none" xmlns="http://www.w3.org/2000/svg">
<path fill-rule="evenodd" clip-rule="evenodd" d="M4.78797 0.725805C4.53413 0.708485 4.22493 0.70849 3.85455 0.708496H3.81245C3.44207 0.70849 3.13287 0.708485 2.87903 0.725805C2.61478 0.743835 2.36517 0.782704 2.12318 0.882939C1.56166 1.11553 1.11553 1.56166 0.882939 2.12318C0.782704 2.36517 0.743835 2.61478 0.725805 2.87903C0.708485 3.13287 0.70849 3.44206 0.708496 3.81244V3.85454C0.70849 4.22492 0.708485 4.53413 0.725805 4.78797C0.743835 5.05222 0.782704 5.30182 0.882939 5.54381C1.11553 6.10534 1.56166 6.55146 2.12318 6.78405C2.36517 6.88429 2.61478 6.92316 2.87903 6.94119C3.13287 6.95851 3.44207 6.9585 3.81245 6.9585H3.85454C4.22493 6.9585 4.53412 6.95851 4.78797 6.94119C5.05222 6.92316 5.30182 6.88429 5.54381 6.78405C6.10534 6.55146 6.55146 6.10534 6.78405 5.54381C6.88429 5.30182 6.92316 5.05222 6.94119 4.78797C6.95851 4.53412 6.9585 4.22493 6.9585 3.85454V3.81245C6.9585 3.44207 6.95851 3.13287 6.94119 2.87903C6.92316 2.61478 6.88429 2.36517 6.78405 2.12318C6.55146 1.56166 6.10534 1.11553 5.54381 0.882939C5.30182 0.782704 5.05222 0.743835 4.78797 0.725805ZM2.60153 2.03779C2.66583 2.01116 2.76351 1.98659 2.96411 1.97291C3.17033 1.95884 3.43666 1.9585 3.8335 1.9585C4.23033 1.9585 4.49666 1.95884 4.70288 1.97291C4.90348 1.98659 5.00116 2.01116 5.06546 2.03779C5.3207 2.14351 5.52348 2.3463 5.6292 2.60153C5.65584 2.66583 5.6804 2.76351 5.69409 2.96411C5.70816 3.17033 5.7085 3.43666 5.7085 3.8335C5.7085 4.23033 5.70816 4.49666 5.69409 4.70288C5.6804 4.90348 5.65584 5.00116 5.6292 5.06546C5.52348 5.3207 5.3207 5.52348 5.06546 5.6292C5.00116 5.65584 4.90348 5.6804 4.70288 5.69409C4.49666 5.70816 4.23033 5.7085 3.8335 5.7085C3.43666 5.7085 3.17033 5.70816 2.96411 5.69409C2.76351 5.6804 2.66583 5.65584 2.60153 5.6292C2.3463 5.52348 2.14351 5.3207 2.03779 5.06546C2.01116 5.00116 1.98659 4.90348 1.97291 4.70288C1.95884 4.49666 1.9585 4.23033 1.9585 3.8335C1.9585 3.43666 1.95884 3.17033 1.97291 2.96411C1.98659 2.76351 2.01116 2.66583 2.03779 2.60153C2.14351 2.3463 2.3463 2.14351 2.60153 2.03779Z" fill="#6F7782"/>
<path fill-rule="evenodd" clip-rule="evenodd" d="M4.78797 9.05914C4.53412 9.04182 4.22493 9.04182 3.85454 9.04183H3.81245C3.44207 9.04182 3.13287 9.04182 2.87903 9.05914C2.61478 9.07717 2.36517 9.11604 2.12318 9.21627C1.56166 9.44886 1.11553 9.89499 0.882939 10.4565C0.782704 10.6985 0.743835 10.9481 0.725805 11.2124C0.708485 11.4662 0.70849 11.7754 0.708496 12.1458V12.1879C0.70849 12.5583 0.708485 12.8675 0.725805 13.1213C0.743835 13.3856 0.782704 13.6352 0.882939 13.8771C1.11553 14.4387 1.56166 14.8848 2.12318 15.1174C2.36517 15.2176 2.61478 15.2565 2.87903 15.2745C3.13287 15.2918 3.44207 15.2918 3.81245 15.2918H3.85455C4.22493 15.2918 4.53412 15.2918 4.78797 15.2745C5.05222 15.2565 5.30182 15.2176 5.54381 15.1174C6.10534 14.8848 6.55146 14.4387 6.78405 13.8771C6.88429 13.6352 6.92316 13.3856 6.94119 13.1213C6.95851 12.8675 6.9585 12.5583 6.9585 12.1879V12.1458C6.9585 11.7754 6.95851 11.4662 6.94119 11.2124C6.92316 10.9481 6.88429 10.6985 6.78405 10.4565C6.55146 9.89499 6.10534 9.44886 5.54381 9.21627C5.30182 9.11604 5.05222 9.07717 4.78797 9.05914ZM2.60153 10.3711C2.66583 10.3445 2.76351 10.3199 2.96411 10.3062C3.17033 10.2922 3.43666 10.2918 3.8335 10.2918C4.23033 10.2918 4.49666 10.2922 4.70288 10.3062C4.90348 10.3199 5.00116 10.3445 5.06546 10.3711C5.3207 10.4768 5.52348 10.6796 5.6292 10.9349C5.65584 10.9992 5.6804 11.0968 5.69409 11.2974C5.70816 11.5037 5.7085 11.77 5.7085 12.1668C5.7085 12.5637 5.70816 12.83 5.69409 13.0362C5.6804 13.2368 5.65584 13.3345 5.6292 13.3988C5.52348 13.654 5.3207 13.8568 5.06546 13.9625C5.00116 13.9892 4.90348 14.0137 4.70288 14.0274C4.49666 14.0415 4.23033 14.0418 3.8335 14.0418C3.43666 14.0418 3.17033 14.0415 2.96411 14.0274C2.76351 14.0137 2.66583 13.9892 2.60153 13.9625C2.3463 13.8568 2.14351 13.654 2.03779 13.3988C2.01116 13.3345 1.98659 13.2368 1.97291 13.0362C1.95884 12.83 1.9585 12.5637 1.9585 12.1668C1.9585 11.77 1.95884 11.5037 1.97291 11.2974C1.98659 11.0968 2.01116 10.9992 2.03779 10.9349C2.14351 10.6796 2.3463 10.4768 2.60153 10.3711Z" fill="#6F7782"/>
<path fill-rule="evenodd" clip-rule="evenodd" d="M13.1213 9.05914C12.8675 9.04182 12.5583 9.04182 12.1879 9.04183H12.1458C11.7754 9.04182 11.4662 9.04182 11.2124 9.05914C10.9481 9.07717 10.6985 9.11604 10.4565 9.21627C9.89499 9.44886 9.44886 9.89499 9.21627 10.4565C9.11604 10.6985 9.07717 10.9481 9.05914 11.2124C9.04182 11.4662 9.04182 11.7754 9.04183 12.1458V12.1879C9.04182 12.5583 9.04182 12.8675 9.05914 13.1213C9.07717 13.3856 9.11604 13.6352 9.21627 13.8771C9.44886 14.4387 9.89499 14.8848 10.4565 15.1174C10.6985 15.2176 10.9481 15.2565 11.2124 15.2745C11.4662 15.2918 11.7754 15.2918 12.1458 15.2918H12.1879C12.5583 15.2918 12.8675 15.2918 13.1213 15.2745C13.3856 15.2565 13.6352 15.2176 13.8771 15.1174C14.4387 14.8848 14.8848 14.4387 15.1174 13.8771C15.2176 13.6352 15.2565 13.3856 15.2745 13.1213C15.2918 12.8675 15.2918 12.5583 15.2918 12.1879V12.1458C15.2918 11.7754 15.2918 11.4662 15.2745 11.2124C15.2565 10.9481 15.2176 10.6985 15.1174 10.4565C14.8848 9.89499 14.4387 9.44886 13.8771 9.21627C13.6352 9.11604 13.3856 9.07717 13.1213 9.05914ZM10.9349 10.3711C10.9992 10.3445 11.0968 10.3199 11.2974 10.3062C11.5037 10.2922 11.77 10.2918 12.1668 10.2918C12.5637 10.2918 12.83 10.2922 13.0362 10.3062C13.2368 10.3199 13.3345 10.3445 13.3988 10.3711C13.654 10.4768 13.8568 10.6796 13.9625 10.9349C13.9892 10.9992 14.0137 11.0968 14.0274 11.2974C14.0415 11.5037 14.0418 11.77 14.0418 12.1668C14.0418 12.5637 14.0415 12.83 14.0274 13.0362C14.0137 13.2368 13.9892 13.3345 13.9625 13.3988C13.8568 13.654 13.654 13.8568 13.3988 13.9625C13.3345 13.9892 13.2368 14.0137 13.0362 14.0274C12.83 14.0415 12.5637 14.0418 12.1668 14.0418C11.77 14.0418 11.5037 14.0415 11.2974 14.0274C11.0968 14.0137 10.9992 13.9892 10.9349 13.9625C10.6796 13.8568 10.4768 13.654 10.3711 13.3988C10.3445 13.3345 10.3199 13.2368 10.3062 13.0362C10.2922 12.83 10.2918 12.5637 10.2918 12.1668C10.2918 11.77 10.2922 11.5037 10.3062 11.2974C10.3199 11.0968 10.3445 10.9992 10.3711 10.9349C10.4768 10.6796 10.6796 10.4768 10.9349 10.3711Z" fill="#6F7782"/>
</svg>
