<svg width="18" height="18" viewBox="0 0 18 18" fill="none" xmlns="http://www.w3.org/2000/svg">
<path d="M6.74299 15.7879L6.48244 15.0847L6.74299 15.7879ZM2.53126 16.5549L2.1711 17.2127H2.1711L2.53126 16.5549ZM1.1258 12.7127L0.385295 12.8316L1.1258 12.7127ZM1.63488 10.1506L2.27548 10.5406L1.63488 10.1506ZM1.02836 11.3688L0.292739 11.2226H0.292739L1.02836 11.3688ZM8.82839 14.0888L9.46899 14.4789L8.82839 14.0888ZM8.01911 15.196L8.49285 15.7774L8.01911 15.196ZM5.57877 3.67311L4.93817 3.28307L5.57877 3.67311ZM17 17.75C17.4142 17.75 17.75 17.4142 17.75 17C17.75 16.5858 17.4142 16.25 17 16.25V17.75ZM10.7702 16.25C10.356 16.25 10.0202 16.5858 10.0202 17C10.0202 17.4142 10.356 17.75 10.7702 17.75V16.25ZM12.1317 7.22131L8.18778 13.6988L9.46899 14.4789L13.4129 8.00138L12.1317 7.22131ZM2.27548 10.5406L6.21937 4.06314L4.93817 3.28307L0.994275 9.76057L2.27548 10.5406ZM6.48244 15.0847C5.34576 15.5058 4.5659 15.7929 3.96218 15.9266C3.37567 16.0566 3.09402 16.0079 2.89142 15.897L2.1711 17.2127C2.83284 17.575 3.54126 17.5563 4.28663 17.3911C5.0148 17.2298 5.90863 16.8969 7.00354 16.4912L6.48244 15.0847ZM0.385295 12.8316C0.561785 13.9305 0.705746 14.8395 0.925235 15.5268C1.15275 16.2391 1.5012 16.846 2.1711 17.2127L2.89142 15.897C2.69697 15.7905 2.52307 15.5993 2.35412 15.0704C2.17716 14.5163 2.05056 13.7409 1.86631 12.5938L0.385295 12.8316ZM0.994275 9.76057C0.661886 10.3065 0.390155 10.7323 0.292739 11.2226L1.76398 11.5149C1.79752 11.3461 1.88648 11.1795 2.27548 10.5406L0.994275 9.76057ZM1.86631 12.5938C1.74912 11.8641 1.73081 11.6819 1.76398 11.5149L0.292739 11.2226C0.194947 11.7148 0.285253 12.2088 0.385295 12.8316L1.86631 12.5938ZM8.18778 13.6988C7.80105 14.334 7.69096 14.4959 7.54538 14.6146L8.49285 15.7774C8.88373 15.459 9.13434 15.0285 9.46899 14.4789L8.18778 13.6988ZM7.00354 16.4912C7.62763 16.26 8.10561 16.0929 8.49285 15.7774L7.54538 14.6146C7.39615 14.7361 7.2022 14.818 6.48244 15.0847L7.00354 16.4912ZM10.892 2.88947C11.7581 3.36366 12.3419 3.68504 12.7445 3.97963C13.1325 4.26358 13.2498 4.45138 13.2963 4.61578L14.7398 4.20789C14.5636 3.58444 14.1457 3.14626 13.6303 2.76912C13.1295 2.40262 12.4417 2.02781 11.6123 1.57375L10.892 2.88947ZM13.4129 8.00138C13.8909 7.21636 14.2914 6.56169 14.5339 6.00237C14.7852 5.42253 14.9171 4.8355 14.7398 4.20789L13.2963 4.61578C13.3416 4.77601 13.3401 4.98485 13.1576 5.40585C12.9662 5.84738 12.6326 6.39855 12.1317 7.22131L13.4129 8.00138ZM11.6123 1.57375C10.7823 1.11938 10.0968 0.742399 9.51314 0.514912C8.90978 0.279767 8.31972 0.164268 7.69329 0.323433L8.06267 1.77724C8.26709 1.7253 8.51632 1.73632 8.96844 1.91252C9.44022 2.09638 10.0264 2.41559 10.892 2.88947L11.6123 1.57375ZM6.21937 4.06314C6.71995 3.24099 7.05698 2.69062 7.36561 2.31137C7.65846 1.95153 7.86163 1.82832 8.06267 1.77724L7.69329 0.323433C7.06349 0.483454 6.60651 0.867741 6.20219 1.36456C5.81366 1.84198 5.4165 2.49745 4.93817 3.28307L6.21937 4.06314ZM13.1324 6.95348L5.93893 3.01524L5.21861 4.33097L12.4121 8.26921L13.1324 6.95348ZM17 16.25H10.7702V17.75H17V16.25Z" fill="#2E6F9F"/>
</svg>
