<svg width="16" height="14" viewBox="0 0 16 14" fill="none" xmlns="http://www.w3.org/2000/svg">
<path d="M7.99992 8.24984C7.58571 8.24984 7.24992 8.58562 7.24992 8.99984C7.24992 9.41405 7.58571 9.74984 7.99992 9.74984V8.24984ZM10.7499 6.99984C10.7499 6.58562 10.4141 6.24984 9.99992 6.24984C9.58571 6.24984 9.24992 6.58562 9.24992 6.99984H10.7499ZM2.14703 5.7501L1.53777 5.31272H1.53777L2.14703 5.7501ZM2.14688 8.24937L2.75615 7.81199L2.75615 7.81199L2.14688 8.24937ZM3.85857 10.2617L4.42151 9.76614L4.4025 9.74454L4.3819 9.72447L3.85857 10.2617ZM12.0673 3.6665L11.5486 4.20824L11.5699 4.22864L11.5927 4.2473L12.0673 3.6665ZM1.55786 6.99982L0.807863 6.99981L1.55786 6.99982ZM13.8528 8.24957L14.4621 8.68696V8.68696L13.8528 8.24957ZM13.8528 5.75005L13.2435 6.18744L13.2435 6.18744L13.8528 5.75005ZM13.7904 4.43547C13.5283 4.11475 13.0558 4.06724 12.7351 4.32935C12.4143 4.59147 12.3668 5.06397 12.6289 5.38469L13.7904 4.43547ZM5.43745 10.6182C5.10103 10.3766 4.63241 10.4534 4.39077 10.7899C4.14912 11.1263 4.22596 11.5949 4.56239 11.8365L5.43745 10.6182ZM14.442 6.99983L13.692 6.99984L14.442 6.99983ZM0.864731 11.7475C0.541284 12.0063 0.488843 12.4782 0.7476 12.8017C1.00636 13.1251 1.47833 13.1776 1.80177 12.9188L0.864731 11.7475ZM15.1351 2.25216C15.4586 1.9934 15.511 1.52143 15.2522 1.19798C14.9935 0.874536 14.5215 0.822095 14.1981 1.08085L15.1351 2.25216ZM12.1164 3.70665L12.5849 4.2923L12.1164 3.70665ZM3.88502 10.2918L4.35354 10.8774L3.88502 10.2918ZM7.99992 4.24984C6.48114 4.24984 5.24992 5.48105 5.24992 6.99984H6.74992C6.74992 6.30948 7.30956 5.74984 7.99992 5.74984V4.24984ZM5.24992 6.99984C5.24992 7.64556 5.47341 8.24115 5.84668 8.71054L7.0207 7.7769C6.8509 7.56338 6.74992 7.29443 6.74992 6.99984H5.24992ZM10.1466 5.28089C9.64382 4.65364 8.86877 4.24984 7.99992 4.24984V5.74984C8.39436 5.74984 8.74583 5.93167 8.97613 6.21901L10.1466 5.28089ZM7.99992 9.74984C9.5187 9.74984 10.7499 8.51862 10.7499 6.99984H9.24992C9.24992 7.69019 8.69027 8.24984 7.99992 8.24984V9.74984ZM7.99992 0.916504C6.49008 0.916504 5.14444 1.66209 4.07603 2.53688C2.99903 3.4187 2.12306 4.49744 1.53777 5.31272L2.75629 6.18749C3.30264 5.42644 4.09088 4.46338 5.0263 3.69748C5.97029 2.92455 6.98527 2.4165 7.99992 2.4165V0.916504ZM1.53762 8.68674C1.98441 9.30912 2.59682 10.0797 3.33524 10.799L4.3819 9.72447C3.72536 9.08493 3.16965 8.388 2.75615 7.81199L1.53762 8.68674ZM12.5859 3.12477C11.4163 2.00489 9.8251 0.916504 7.99992 0.916504V2.4165C9.23714 2.4165 10.4672 3.17292 11.5486 4.20824L12.5859 3.12477ZM1.53777 5.31272C1.17979 5.81138 0.807868 6.28574 0.807863 6.99981L2.30786 6.99983C2.30786 6.85583 2.32872 6.78307 2.75629 6.18749L1.53777 5.31272ZM2.75615 7.81199C2.3287 7.21656 2.30786 7.14384 2.30786 6.99983L0.807863 6.99981C0.807857 7.71388 1.1797 8.18817 1.53762 8.68674L2.75615 7.81199ZM7.99992 13.0832C9.50975 13.0832 10.8554 12.3376 11.9238 11.4628C13.0008 10.581 13.8768 9.50224 14.4621 8.68696L13.2436 7.81219C12.6972 8.57324 11.909 9.5363 10.9735 10.3022C10.0295 11.0751 9.01457 11.5832 7.99992 11.5832V13.0832ZM14.462 5.31266C14.2676 5.04186 14.0427 4.74414 13.7904 4.43547L12.6289 5.38469C12.8589 5.66606 13.0649 5.93858 13.2435 6.18744L14.462 5.31266ZM4.56239 11.8365C5.53606 12.5359 6.70704 13.0832 7.99992 13.0832V11.5832C7.13465 11.5832 6.26724 11.2142 5.43745 10.6182L4.56239 11.8365ZM14.4621 8.68696C14.8201 8.18829 15.192 7.71392 15.192 6.99983L13.692 6.99984C13.692 7.14384 13.6711 7.2166 13.2436 7.81219L14.4621 8.68696ZM13.2435 6.18744C13.6711 6.78307 13.692 6.85583 13.692 6.99984L15.192 6.99983C15.192 6.28574 14.82 5.81135 14.462 5.31266L13.2435 6.18744ZM12.5849 4.2923L15.1351 2.25216L14.1981 1.08085L11.6479 3.12099L12.5849 4.2923ZM11.5927 4.2473L11.6419 4.28744L12.5909 3.12585L12.5418 3.08571L11.5927 4.2473ZM1.80177 12.9188L4.35354 10.8774L3.4165 9.70611L0.864731 11.7475L1.80177 12.9188ZM4.35354 10.8774L12.5849 4.2923L11.6479 3.12099L3.4165 9.70611L4.35354 10.8774ZM3.29562 10.7573L3.32207 10.7873L4.44796 9.79618L4.42151 9.76614L3.29562 10.7573Z" fill="#051626"/>
</svg>
