<svg width="16" height="14" viewBox="0 0 16 14" fill="none" xmlns="http://www.w3.org/2000/svg">
<path d="M13.8528 8.24957L14.4621 8.68696L13.8528 8.24957ZM13.8528 5.7501L13.2436 6.18749L13.8528 5.7501ZM2.14703 8.24957L2.75629 7.81219L2.14703 8.24957ZM2.14703 5.7501L1.53778 5.31272L2.14703 5.7501ZM1.55786 6.99984H0.807861H1.55786ZM1.53778 8.68696C2.12307 9.50224 2.99903 10.581 4.07603 11.4628C5.14444 12.3376 6.49009 13.0832 7.99992 13.0832V11.5832C6.98527 11.5832 5.9703 11.0751 5.0263 10.3022C4.09088 9.5363 3.30265 8.57323 2.75629 7.81219L1.53778 8.68696ZM7.99992 13.0832C9.50976 13.0832 10.8554 12.3376 11.9238 11.4628C13.0008 10.581 13.8768 9.50224 14.4621 8.68696L13.2436 7.81219C12.6972 8.57323 11.909 9.5363 10.9735 10.3022C10.0295 11.0751 9.01457 11.5832 7.99992 11.5832V13.0832ZM14.4621 5.31272C13.8768 4.49744 13.0008 3.4187 11.9238 2.53688C10.8554 1.66209 9.50976 0.916504 7.99992 0.916504V2.4165C9.01457 2.4165 10.0295 2.92455 10.9735 3.69748C11.909 4.46338 12.6972 5.42644 13.2436 6.18749L14.4621 5.31272ZM7.99992 0.916504C6.49009 0.916504 5.14444 1.66209 4.07603 2.53688C2.99903 3.4187 2.12307 4.49744 1.53778 5.31272L2.75629 6.18749C3.30265 5.42644 4.09088 4.46338 5.0263 3.69748C5.9703 2.92455 6.98527 2.4165 7.99992 2.4165V0.916504ZM14.4621 8.68696C14.8201 8.18829 15.192 7.71392 15.192 6.99984H13.692C13.692 7.14384 13.6711 7.2166 13.2436 7.81219L14.4621 8.68696ZM13.2436 6.18749C13.6711 6.78308 13.692 6.85583 13.692 6.99984H15.192C15.192 6.28575 14.8201 5.81138 14.4621 5.31272L13.2436 6.18749ZM2.75629 7.81219C2.32872 7.2166 2.30786 7.14384 2.30786 6.99984H0.807861C0.807861 7.71392 1.17979 8.18829 1.53778 8.68696L2.75629 7.81219ZM1.53778 5.31272C1.17979 5.81138 0.807861 6.28575 0.807861 6.99984H2.30786C2.30786 6.85583 2.32872 6.78308 2.75629 6.18749L1.53778 5.31272ZM5.24992 6.99984C5.24992 8.51862 6.48114 9.74984 7.99992 9.74984V8.24984C7.30957 8.24984 6.74992 7.69019 6.74992 6.99984H5.24992ZM7.99992 9.74984C9.51871 9.74984 10.7499 8.51862 10.7499 6.99984H9.24992C9.24992 7.69019 8.69028 8.24984 7.99992 8.24984V9.74984ZM10.7499 6.99984C10.7499 5.48105 9.51871 4.24984 7.99992 4.24984V5.74984C8.69028 5.74984 9.24992 6.30948 9.24992 6.99984H10.7499ZM7.99992 4.24984C6.48114 4.24984 5.24992 5.48105 5.24992 6.99984H6.74992C6.74992 6.30948 7.30957 5.74984 7.99992 5.74984V4.24984Z" fill="#051626"/>
</svg>
