<svg width="20" height="20" viewBox="0 0 20 20" fill="none" xmlns="http://www.w3.org/2000/svg">
<path d="M2.30604 13.1829L3.01933 12.9511L2.30604 13.1829ZM1.38062 8.04281L2.10193 8.24827L1.38062 8.04281ZM5.24497 4.1378L4.80413 3.53104L5.24497 4.1378ZM1.47503 7.75226L2.17934 8.01002L1.47503 7.75226ZM4.82578 18.0648L4.40748 18.6873L4.82578 18.0648ZM4.57862 17.8852L4.11583 18.4754L4.57862 17.8852ZM17.6945 13.1829L16.9812 12.9511L17.6945 13.1829ZM15.4219 17.8852L15.8847 18.4754L15.4219 17.8852ZM15.1747 18.0648L15.593 18.6873L15.1747 18.0648ZM14.7555 4.1378L15.1964 3.53104L14.7555 4.1378ZM18.5255 7.75226L17.8212 8.01002L18.5255 7.75226ZM18.6199 8.04281L17.8986 8.24827L18.6199 8.04281ZM10.153 1.6693L10.1255 2.4188L10.153 1.6693ZM9.8475 1.6693L9.87499 2.4188L9.8475 1.6693ZM8.33358 14.0996C7.91937 14.0996 7.58358 14.4353 7.58358 14.8496C7.58358 15.2638 7.91937 15.5996 8.33358 15.5996V14.0996ZM11.6669 15.5996C12.0811 15.5996 12.4169 15.2638 12.4169 14.8496C12.4169 14.4353 12.0811 14.0996 11.6669 14.0996V15.5996ZM3.01933 12.9511C2.58987 11.6294 2.28714 10.6944 2.12863 9.93742C1.97374 9.19769 1.97349 8.69918 2.10193 8.24827L0.659311 7.83735C0.439878 8.60773 0.477913 9.373 0.660477 10.2449C0.839434 11.0995 1.17335 12.1239 1.59275 13.4146L3.01933 12.9511ZM4.80413 3.53104C3.70614 4.32877 2.83386 4.96127 2.18674 5.54749C1.52658 6.14552 1.046 6.74228 0.770709 7.49451L2.17934 8.01002C2.34047 7.56973 2.63369 7.16657 3.1938 6.65916C3.76697 6.13994 4.56145 5.56146 5.6858 4.74457L4.80413 3.53104ZM2.10193 8.24827C2.12481 8.16793 2.15063 8.08846 2.17934 8.01002L0.770709 7.49451C0.729398 7.60739 0.69224 7.72175 0.659311 7.83735L2.10193 8.24827ZM10.0002 18.0231C8.61046 18.0231 7.6277 18.022 6.85881 17.9389C6.10741 17.8576 5.63323 17.7038 5.24407 17.4423L4.40748 18.6873C5.07234 19.1341 5.81191 19.3344 6.6975 19.4302C7.5656 19.5241 8.64306 19.5231 10.0002 19.5231V18.0231ZM1.59275 13.4146C2.01214 14.7054 2.34413 15.7305 2.70169 16.527C3.06645 17.3397 3.48549 17.9812 4.11583 18.4754L5.04141 17.2951C4.67246 17.0057 4.37964 16.6023 4.07015 15.9128C3.75346 15.2072 3.4488 14.2729 3.01933 12.9511L1.59275 13.4146ZM5.24407 17.4423C5.17474 17.3957 5.10714 17.3466 5.04141 17.2951L4.11583 18.4754C4.21043 18.5496 4.30771 18.6203 4.40748 18.6873L5.24407 17.4423ZM16.9812 12.9511C16.5517 14.2729 16.247 15.2072 15.9303 15.9128C15.6209 16.6023 15.328 17.0057 14.9591 17.2951L15.8847 18.4754C16.515 17.9812 16.934 17.3397 17.2988 16.527C17.6564 15.7305 17.9884 14.7054 18.4078 13.4147L16.9812 12.9511ZM10.0002 19.5231C11.3574 19.5231 12.4349 19.5241 13.303 19.4302C14.1886 19.3344 14.9282 19.1341 15.593 18.6873L14.7564 17.4423C14.3673 17.7038 13.8931 17.8576 13.1417 17.9389C12.3728 18.022 11.39 18.0231 10.0002 18.0231V19.5231ZM14.9591 17.2951C14.8934 17.3466 14.8258 17.3957 14.7564 17.4423L15.593 18.6873C15.6928 18.6203 15.7901 18.5496 15.8847 18.4754L14.9591 17.2951ZM14.3147 4.74457C15.4391 5.56146 16.2335 6.13994 16.8067 6.65916C17.3668 7.16657 17.66 7.56973 17.8212 8.01002L19.2298 7.49451C18.9545 6.74228 18.4739 6.14552 17.8138 5.54749C17.1666 4.96127 16.2944 4.32877 15.1964 3.53104L14.3147 4.74457ZM18.4078 13.4147C18.8271 12.1239 19.1611 11.0995 19.34 10.2449C19.5226 9.373 19.5606 8.60773 19.3412 7.83735L17.8986 8.24827C18.027 8.69918 18.0268 9.19769 17.8719 9.93742C17.7134 10.6944 17.4106 11.6294 16.9812 12.9511L18.4078 13.4147ZM17.8212 8.01002C17.8499 8.08846 17.8757 8.16793 17.8986 8.24827L19.3412 7.83735C19.3083 7.72175 19.2711 7.60739 19.2298 7.49451L17.8212 8.01002ZM15.1964 3.53104C14.0984 2.73331 13.2273 2.09917 12.4698 1.66488C11.697 1.22183 10.981 0.949174 10.1805 0.919809L10.1255 2.4188C10.594 2.43599 11.0681 2.59027 11.7237 2.96618C12.3947 3.35084 13.1903 3.92767 14.3147 4.74457L15.1964 3.53104ZM5.6858 4.74457C6.81016 3.92767 7.60584 3.35084 8.27677 2.96618C8.93243 2.59027 9.40646 2.43599 9.87499 2.4188L9.82 0.919809C9.01953 0.949174 8.30346 1.22183 7.5307 1.66488C6.7732 2.09917 5.90211 2.73331 4.80413 3.53104L5.6858 4.74457ZM10.1805 0.919809C10.0604 0.915402 9.94013 0.915402 9.82 0.919809L9.87499 2.4188C9.95847 2.41574 10.042 2.41574 10.1255 2.4188L10.1805 0.919809ZM8.33358 15.5996H11.6669V14.0996H8.33358V15.5996Z" fill="#6F7782"/>
</svg>
