<svg width="16" height="16" viewBox="0 0 16 16" fill="none" xmlns="http://www.w3.org/2000/svg">
<path d="M13.1972 11.4696C12.9043 11.1767 12.4294 11.1767 12.1365 11.4696C11.8437 11.7625 11.8436 12.2373 12.1365 12.5302L13.1972 11.4696ZM14.8031 15.1969C15.096 15.4897 15.5709 15.4898 15.8638 15.1969C16.1567 14.904 16.1567 14.4291 15.8638 14.1362L14.8031 15.1969ZM6.26268 3.44831C6.6718 3.38351 6.95092 2.99933 6.88612 2.59021C6.82133 2.1811 6.43715 1.90198 6.02803 1.96677L6.26268 3.44831ZM2.63375 5.36106C2.56895 5.77017 2.84807 6.15435 3.25719 6.21915C3.6663 6.28395 4.05048 6.00483 4.11528 5.59571L2.63375 5.36106ZM12.1365 12.5302L14.8031 15.1969L15.8638 14.1362L13.1972 11.4696L12.1365 12.5302ZM7.3335 11.9165C4.434 11.9165 2.0835 9.566 2.0835 6.6665H0.583496C0.583496 10.3944 3.60557 13.4165 7.3335 13.4165V11.9165ZM12.5835 6.6665C12.5835 9.566 10.233 11.9165 7.3335 11.9165V13.4165C11.0614 13.4165 14.0835 10.3944 14.0835 6.6665H12.5835ZM7.3335 1.4165C10.233 1.4165 12.5835 3.76701 12.5835 6.6665H14.0835C14.0835 2.93858 11.0614 -0.0834961 7.3335 -0.0834961V1.4165ZM7.3335 -0.0834961C3.60557 -0.0834961 0.583496 2.93858 0.583496 6.6665H2.0835C2.0835 3.76701 4.434 1.4165 7.3335 1.4165V-0.0834961ZM6.02803 1.96677C4.2808 2.24351 2.91048 3.61383 2.63375 5.36106L4.11528 5.59571C4.29035 4.49032 5.15729 3.62338 6.26268 3.44831L6.02803 1.96677Z" fill="#6F7782"/>
</svg>
