<svg width="18" height="21" viewBox="0 0 18 21" fill="none" xmlns="http://www.w3.org/2000/svg">
<path d="M1.36619 14.5496L2.041 14.2223L1.36619 14.5496ZM2.17514 10.2731L2.68376 10.8243H2.68376L2.17514 10.2731ZM3.32194 7.13719L2.57773 7.23021V7.23021L3.32194 7.13719ZM15.8564 10.3945L16.3668 9.84496L16.3668 9.84496L15.8564 10.3945ZM16.4783 15.2347L15.8456 14.832L16.4783 15.2347ZM14.6015 7.02598L15.3458 7.11901V7.11901L14.6015 7.02598ZM15.8125 10.3538L15.3021 10.9033L15.3021 10.9033L15.8125 10.3538ZM1.46954 14.7627L0.79474 15.09H0.79474L1.46954 14.7627ZM14.6662 6.50905L13.922 6.41603V6.41603L14.6662 6.50905ZM3.24258 6.50234L3.98679 6.40931V6.40931L3.24258 6.50234ZM5.58336 17.6857L4.93553 18.0636H4.93553L5.58336 17.6857ZM5.8312 16.6221C5.62249 16.2643 5.16325 16.1435 4.80546 16.3522C4.44767 16.5609 4.32682 17.0201 4.53553 17.3779L5.8312 16.6221ZM13.8312 17.3779C14.0399 17.0201 13.9191 16.5609 13.5613 16.3522C13.2035 16.1435 12.7442 16.2643 12.5355 16.6221L13.8312 17.3779ZM12.7834 17.6857L13.4312 18.0636H13.4312L12.7834 17.6857ZM8.09995 1.75H9.80286V0.25H8.09995V1.75ZM13.2623 16.25H5.04144V17.75H13.2623V16.25ZM13.922 6.41603L13.8573 6.93296L15.3458 7.11901L15.4104 6.60208L13.922 6.41603ZM15.3021 10.9033L15.346 10.9441L16.3668 9.84496L16.3229 9.8042L15.3021 10.9033ZM4.06615 7.04416L3.98679 6.40931L2.49838 6.59536L2.57773 7.23021L4.06615 7.04416ZM2.14435 14.4353L2.041 14.2223L0.691389 14.8769L0.79474 15.09L2.14435 14.4353ZM2.041 14.2223C1.48292 13.0718 1.74401 11.6915 2.68376 10.8243L1.66651 9.72195C0.240834 11.0375 -0.155262 13.1315 0.691389 14.8769L2.041 14.2223ZM2.57773 7.23021C2.69385 8.15916 2.35452 9.08706 1.66651 9.72195L2.68376 10.8243C3.72753 9.86114 4.24231 8.45345 4.06615 7.04416L2.57773 7.23021ZM15.346 10.9441C16.4289 11.9497 16.639 13.5852 15.8456 14.832L17.111 15.6373C18.2932 13.7799 17.9801 11.3432 16.3668 9.84496L15.346 10.9441ZM13.8573 6.93296C13.6725 8.41174 14.2101 9.88919 15.3021 10.9033L16.3229 9.8042C15.5843 9.11833 15.2207 8.11912 15.3458 7.11901L13.8573 6.93296ZM5.04144 16.25C3.80787 16.25 2.68272 15.5452 2.14435 14.4353L0.79474 15.09C1.58391 16.7169 3.23321 17.75 5.04144 17.75V16.25ZM13.2623 17.75C14.822 17.75 16.2736 16.9532 17.111 15.6373L15.8456 14.832C15.2835 15.7152 14.3091 16.25 13.2623 16.25V17.75ZM9.80286 1.75C12.2998 1.75 14.2317 3.93841 13.922 6.41603L15.4104 6.60208C15.832 3.22918 13.202 0.25 9.80286 0.25V1.75ZM8.09995 0.25C4.70439 0.25 2.07721 3.22603 2.49838 6.59536L3.98679 6.40931C3.67754 3.93526 5.60664 1.75 8.09995 1.75V0.25ZM6.2312 17.3078L5.8312 16.6221L4.53553 17.3779L4.93553 18.0636L6.2312 17.3078ZM12.5355 16.6221L12.1355 17.3078L13.4312 18.0636L13.8312 17.3779L12.5355 16.6221ZM4.93553 18.0636C5.94833 19.7998 7.52633 20.75 9.18336 20.75C10.8404 20.75 12.4184 19.7998 13.4312 18.0636L12.1355 17.3078C11.3483 18.6573 10.2263 19.25 9.18336 19.25C8.1404 19.25 7.0184 18.6573 6.2312 17.3078L4.93553 18.0636Z" fill="#051626"/>
</svg>
