<svg width="18" height="18" viewBox="0 0 18 18" fill="none" xmlns="http://www.w3.org/2000/svg">
<path fill-rule="evenodd" clip-rule="evenodd" d="M6.08333 9.20817C4.58756 9.20817 3.375 10.4207 3.375 11.9165C3.375 13.4123 4.58756 14.6248 6.08333 14.6248C7.5791 14.6248 8.79167 13.4123 8.79167 11.9165C8.79167 10.4207 7.5791 9.20817 6.08333 9.20817ZM4.625 11.9165C4.625 11.1111 5.27792 10.4582 6.08333 10.4582C6.88875 10.4582 7.54167 11.1111 7.54167 11.9165C7.54167 12.7219 6.88875 13.3748 6.08333 13.3748C5.27792 13.3748 4.625 12.7219 4.625 11.9165Z" fill="#6F7782"/>
<path d="M10.6667 10.0415C10.3215 10.0415 10.0417 10.3213 10.0417 10.6665C10.0417 11.0117 10.3215 11.2915 10.6667 11.2915H14C14.3452 11.2915 14.625 11.0117 14.625 10.6665C14.625 10.3213 14.3452 10.0415 14 10.0415H10.6667Z" fill="#6F7782"/>
<path d="M10.6667 12.5415C10.3215 12.5415 10.0417 12.8213 10.0417 13.1665C10.0417 13.5117 10.3215 13.7915 10.6667 13.7915H14C14.3452 13.7915 14.625 13.5117 14.625 13.1665C14.625 12.8213 14.3452 12.5415 14 12.5415H10.6667Z" fill="#6F7782"/>
<path fill-rule="evenodd" clip-rule="evenodd" d="M12.9583 0.666504C12.9583 0.321326 12.6785 0.0415039 12.3333 0.0415039C11.9882 0.0415039 11.7083 0.321326 11.7083 0.666504V1.73977C10.9511 1.70817 10.0655 1.70817 9.02607 1.70817L8.96229 1.70817C7.43185 1.70816 6.23217 1.70816 5.2804 1.81128C4.30912 1.91651 3.52213 2.13511 2.8502 2.6233C2.44341 2.91885 2.08568 3.27658 1.79013 3.68337C1.24746 4.43028 1.03721 5.32074 0.946597 6.44984C0.874995 7.342 0.874997 8.44185 0.875 9.80709V9.87088C0.874993 11.4013 0.874988 12.601 0.978107 13.5528C1.08334 14.5241 1.30194 15.311 1.79013 15.983C2.08568 16.3898 2.44341 16.7475 2.8502 17.043C3.52213 17.5312 4.30912 17.7498 5.2804 17.8551C6.23216 17.9582 7.4318 17.9582 8.96221 17.9582H9.03773C10.5681 17.9582 11.7678 17.9582 12.7196 17.8551C13.6909 17.7498 14.4779 17.5312 15.1498 17.043C15.5566 16.7475 15.9143 16.3898 16.2099 15.983C16.6981 15.311 16.9167 14.5241 17.0219 13.5528C17.125 12.601 17.125 11.4014 17.125 9.87096V9.80707C17.125 8.44184 17.125 7.342 17.0534 6.44984C16.9628 5.32074 16.7525 4.43028 16.2099 3.68337C15.9143 3.27658 15.5566 2.91884 15.1498 2.6233C14.5345 2.17623 13.8217 1.95477 12.9583 1.83996V0.666504ZM3.58493 3.63457C4.00826 3.327 4.55011 3.14771 5.41504 3.054C6.29166 2.95903 7.42369 2.95817 9 2.95817C10.3967 2.95817 11.4469 2.95863 12.2833 3.02576C13.3271 3.10953 13.9438 3.29215 14.4151 3.63457C14.7157 3.85302 14.9802 4.11743 15.1986 4.4181C15.4597 4.7775 15.6279 5.22144 15.7302 5.87484H2.26979C2.37208 5.22144 2.54028 4.7775 2.8014 4.4181C3.01985 4.11743 3.28426 3.85302 3.58493 3.63457ZM2.125 9.83317C2.125 8.73902 2.12528 7.85752 2.15768 7.12484H15.8423C15.8747 7.85752 15.875 8.73902 15.875 9.83317C15.875 11.4095 15.8741 12.5415 15.7792 13.4181C15.6855 14.2831 15.5062 14.8249 15.1986 15.2482C14.9802 15.5489 14.7157 15.8133 14.4151 16.0318C13.9917 16.3393 13.4499 16.5186 12.585 16.6123C11.7083 16.7073 10.5763 16.7082 9 16.7082C7.42369 16.7082 6.29166 16.7073 5.41504 16.6123C4.55011 16.5186 4.00826 16.3393 3.58493 16.0318C3.28426 15.8133 3.01985 15.5489 2.8014 15.2482C2.49383 14.8249 2.31454 14.2831 2.22083 13.4181C2.12586 12.5415 2.125 11.4095 2.125 9.83317Z" fill="#6F7782"/>
</svg>
