<svg width="21" height="21" viewBox="0 0 21 21" fill="none" xmlns="http://www.w3.org/2000/svg">
<path d="M5.94275 4.875C5.94275 4.37772 6.14029 3.90081 6.49192 3.54917C6.84355 3.19754 7.32047 3 7.81775 3H14.0677C14.565 3 15.0419 3.19754 15.3936 3.54917C15.7452 3.90081 15.9427 4.37772 15.9427 4.875V5.5H17.1927C17.8558 5.5 18.4917 5.76339 18.9605 6.23223C19.4294 6.70107 19.6927 7.33696 19.6927 8V13.625C19.6927 14.1223 19.4952 14.5992 19.1436 14.9508C18.7919 15.3025 18.315 15.5 17.8177 15.5H16.0677V16.125C16.0677 16.6223 15.8702 17.0992 15.5186 17.4508C15.1669 17.8025 14.69 18 14.1927 18H7.81775C7.32047 18 6.84355 17.8025 6.49192 17.4508C6.14029 17.0992 5.94275 16.6223 5.94275 16.125V15.5H4.06775C3.57047 15.5 3.09355 15.3025 2.74192 14.9508C2.39029 14.5992 2.19275 14.1223 2.19275 13.625V8C2.19275 7.33696 2.45614 6.70107 2.92498 6.23223C3.39382 5.76339 4.02971 5.5 4.69275 5.5H5.94275V4.875ZM14.6927 5.5V4.875C14.6927 4.70924 14.6269 4.55027 14.5097 4.43306C14.3925 4.31585 14.2335 4.25 14.0677 4.25H7.81775C7.65199 4.25 7.49302 4.31585 7.37581 4.43306C7.2586 4.55027 7.19275 4.70924 7.19275 4.875V5.5H14.6927ZM5.94275 6.75H4.69275C4.36123 6.75 4.04329 6.8817 3.80887 7.11612C3.57445 7.35054 3.44275 7.66848 3.44275 8V13.625C3.44275 13.7908 3.5086 13.9497 3.62581 14.0669C3.74302 14.1842 3.90199 14.25 4.06775 14.25H5.94275V13.625C5.94275 13.1277 6.14029 12.6508 6.49192 12.2992C6.84355 11.9475 7.32047 11.75 7.81775 11.75H14.1927C14.69 11.75 15.1669 11.9475 15.5186 12.2992C15.8702 12.6508 16.0677 13.1277 16.0677 13.625V14.25H17.8177C17.9835 14.25 18.1425 14.1842 18.2597 14.0669C18.3769 13.9497 18.4427 13.7908 18.4427 13.625V8C18.4427 7.66848 18.3111 7.35054 18.0766 7.11612C17.8422 6.8817 17.5243 6.75 17.1927 6.75H5.94275ZM7.81775 13C7.65199 13 7.49302 13.0658 7.37581 13.1831C7.2586 13.3003 7.19275 13.4592 7.19275 13.625V16.125C7.19275 16.2908 7.2586 16.4497 7.37581 16.5669C7.49302 16.6842 7.65199 16.75 7.81775 16.75H14.1927C14.3585 16.75 14.5175 16.6842 14.6347 16.5669C14.7519 16.4497 14.8177 16.2908 14.8177 16.125V13.625C14.8177 13.4592 14.7519 13.3003 14.6347 13.1831C14.5175 13.0658 14.3585 13 14.1927 13H7.81775Z" fill="#003D6A"/>
</svg>
