<svg width="18" height="15" viewBox="0 0 18 15" fill="none" xmlns="http://www.w3.org/2000/svg">
<path d="M3.94269 1.875C3.94269 1.37772 4.14023 0.900806 4.49186 0.549175C4.84349 0.197544 5.32041 0 5.81769 0H12.0677C12.565 0 13.0419 0.197544 13.3935 0.549175C13.7451 0.900806 13.9427 1.37772 13.9427 1.875V2.5H15.1927C15.8557 2.5 16.4916 2.76339 16.9605 3.23223C17.4293 3.70107 17.6927 4.33696 17.6927 5V10.625C17.6927 11.1223 17.4951 11.5992 17.1435 11.9508C16.7919 12.3025 16.315 12.5 15.8177 12.5H14.0677V13.125C14.0677 13.6223 13.8701 14.0992 13.5185 14.4508C13.1669 14.8025 12.69 15 12.1927 15H5.81769C5.32041 15 4.84349 14.8025 4.49186 14.4508C4.14023 14.0992 3.94269 13.6223 3.94269 13.125V12.5H2.06769C1.57041 12.5 1.09349 12.3025 0.741863 11.9508C0.390232 11.5992 0.192688 11.1223 0.192688 10.625V5C0.192688 4.33696 0.45608 3.70107 0.924921 3.23223C1.39376 2.76339 2.02965 2.5 2.69269 2.5H3.94269V1.875ZM12.6927 2.5V1.875C12.6927 1.70924 12.6268 1.55027 12.5096 1.43306C12.3924 1.31585 12.2334 1.25 12.0677 1.25H5.81769C5.65193 1.25 5.49296 1.31585 5.37575 1.43306C5.25854 1.55027 5.19269 1.70924 5.19269 1.875V2.5H12.6927ZM3.94269 3.75H2.69269C2.36117 3.75 2.04322 3.8817 1.8088 4.11612C1.57438 4.35054 1.44269 4.66848 1.44269 5V10.625C1.44269 10.7908 1.50854 10.9497 1.62575 11.0669C1.74296 11.1842 1.90193 11.25 2.06769 11.25H3.94269V10.625C3.94269 10.1277 4.14023 9.65081 4.49186 9.29917C4.84349 8.94754 5.32041 8.75 5.81769 8.75H12.1927C12.69 8.75 13.1669 8.94754 13.5185 9.29917C13.8701 9.65081 14.0677 10.1277 14.0677 10.625V11.25H15.8177C15.9834 11.25 16.1424 11.1842 16.2596 11.0669C16.3768 10.9497 16.4427 10.7908 16.4427 10.625V5C16.4427 4.66848 16.311 4.35054 16.0766 4.11612C15.8422 3.8817 15.5242 3.75 15.1927 3.75H3.94269ZM5.81769 10C5.65193 10 5.49296 10.0658 5.37575 10.1831C5.25854 10.3003 5.19269 10.4592 5.19269 10.625V13.125C5.19269 13.2908 5.25854 13.4497 5.37575 13.5669C5.49296 13.6842 5.65193 13.75 5.81769 13.75H12.1927C12.3584 13.75 12.5174 13.6842 12.6346 13.5669C12.7518 13.4497 12.8177 13.2908 12.8177 13.125V10.625C12.8177 10.4592 12.7518 10.3003 12.6346 10.1831C12.5174 10.0658 12.3584 10 12.1927 10H5.81769Z" fill="white"/>
</svg>
