<svg width="17" height="19" viewBox="0 0 17 19" fill="none" xmlns="http://www.w3.org/2000/svg">
<path d="M2.06652 9.0479L2.44152 8.39838H2.44152L2.06652 9.0479ZM1.90758 8.9515L1.47072 9.56113H1.47072L1.90758 8.9515ZM1.72337 7.76725L2.37289 8.14225L1.72337 7.76725ZM1.63392 7.9302L0.950777 7.62067L1.63392 7.9302ZM14.7138 15.2672L15.3633 15.6422L14.7138 15.2672ZM14.6174 15.4262L15.227 15.863L14.6174 15.4262ZM13.4331 15.6104L13.8081 14.9609L13.4331 15.6104ZM13.5961 15.6998L13.2865 16.383L13.5961 15.6998ZM12.3117 6.30271L11.9367 6.95223L12.3117 6.30271ZM13.4243 6.9775L13.8612 6.36786L13.4243 6.9775ZM15.3399 14.1266L16.023 14.4361L15.3399 14.1266ZM10.6879 5.36521L11.0629 4.71569L10.6879 5.36521ZM9.54723 4.73907L9.85676 4.05592L9.54723 4.73907ZM2.39817 6.65465L3.0078 7.09151L2.39817 6.65465ZM13.5825 2.22543L13.2075 2.87495L13.5825 2.22543ZM15.1077 7.9172L15.7572 8.2922L15.7572 8.2922L15.1077 7.9172ZM7.89078 3.75053L8.54029 4.12553V4.12553L7.89078 3.75053ZM14.8528 8.3586L15.4314 8.83582L15.4711 8.78766L15.5023 8.7336L14.8528 8.3586ZM7.74981 12.3291L8.12481 11.6796L8.12481 11.6796L7.74981 12.3291ZM3.76696 17.7277C3.55985 18.0864 3.68276 18.5451 4.04148 18.7522C4.4002 18.9593 4.85889 18.8364 5.066 18.4777L3.76696 17.7277ZM7.60969 4.23738L7.54944 4.98496L7.60969 4.23738ZM7.72396 12.3142L7.34896 12.9637L7.34896 12.9637L7.72396 12.3142ZM10.3129 6.01473L11.9367 6.95223L12.6867 5.65319L11.0629 4.71569L10.3129 6.01473ZM2.44152 8.39838C2.39744 8.37293 2.3725 8.3585 2.35419 8.3475C2.33706 8.33722 2.33762 8.33697 2.34444 8.34186L1.47072 9.56113C1.5415 9.61185 1.6232 9.65797 1.69152 9.69742L2.44152 8.39838ZM1.07385 7.39225C1.03441 7.46057 0.986712 7.54136 0.950777 7.62067L2.31707 8.23973C2.31361 8.24738 2.31301 8.24744 2.32269 8.22998C2.33306 8.21129 2.34744 8.18633 2.37289 8.14225L1.07385 7.39225ZM2.34444 8.34186C2.31212 8.31871 2.30067 8.27595 2.31707 8.23973L0.950777 7.62067C0.639032 8.30871 0.856724 9.12115 1.47072 9.56113L2.34444 8.34186ZM14.0642 14.8922C14.0388 14.9363 14.0244 14.9613 14.0134 14.9796C14.0031 14.9967 14.0028 14.9962 14.0077 14.9893L15.227 15.863C15.2777 15.7923 15.3238 15.7106 15.3633 15.6422L14.0642 14.8922ZM13.0581 16.2599C13.1264 16.2994 13.2072 16.3471 13.2865 16.383L13.9056 15.0167C13.9132 15.0202 13.9133 15.0208 13.8958 15.0111C13.8772 15.0007 13.8522 14.9863 13.8081 14.9609L13.0581 16.2599ZM14.0077 14.9893C13.9846 15.0216 13.9418 15.0331 13.9056 15.0167L13.2865 16.383C13.9746 16.6947 14.787 16.477 15.227 15.863L14.0077 14.9893ZM11.9367 6.95223C12.5386 7.29973 12.792 7.44708 12.9875 7.58713L13.8612 6.36786C13.5907 6.17407 13.2577 5.98284 12.6867 5.65319L11.9367 6.95223ZM15.3633 15.6422C15.6929 15.0713 15.8857 14.7391 16.023 14.4361L14.6567 13.817C14.5575 14.036 14.4117 14.2904 14.0642 14.8922L15.3633 15.6422ZM11.0629 4.71569C10.4919 4.38603 10.1598 4.19323 9.85676 4.05592L9.2377 5.42221C9.45671 5.52144 9.71102 5.66722 10.3129 6.01473L11.0629 4.71569ZM2.37289 8.14225C2.7204 7.54035 2.86775 7.28695 3.0078 7.09151L1.78853 6.21779C1.59474 6.48823 1.40351 6.82127 1.07385 7.39225L2.37289 8.14225ZM13.2075 2.87495C14.8417 3.81843 15.4016 5.90803 14.4581 7.5422L15.7572 8.2922C17.1149 5.94059 16.3092 2.93361 13.9575 1.57591L13.2075 2.87495ZM8.54029 4.12553C9.48378 2.49137 11.5734 1.93146 13.2075 2.87495L13.9575 1.57591C11.6059 0.218209 8.59896 1.02393 7.24126 3.37553L8.54029 4.12553ZM14.4581 7.5422L14.2033 7.9836L15.5023 8.7336L15.7572 8.2922L14.4581 7.5422ZM7.1003 11.9541L3.76696 17.7277L5.066 18.4777L8.39933 12.7041L7.1003 11.9541ZM8.25921 4.61238L8.54029 4.12553L7.24126 3.37553L6.96017 3.86238L8.25921 4.61238ZM9.85676 4.05592C9.14975 3.73558 8.41021 3.54947 7.66995 3.4898L7.54944 4.98496C8.12001 5.03094 8.69063 5.17434 9.2377 5.42221L9.85676 4.05592ZM7.66995 3.4898C5.42012 3.30847 3.16574 4.29589 1.78853 6.21779L3.0078 7.09151C4.07063 5.60833 5.81088 4.84483 7.54944 4.98496L7.66995 3.4898ZM12.9875 7.58713C13.4731 7.93517 13.8809 8.35509 14.2052 8.82329L15.4383 7.96919C15.0176 7.36174 14.4888 6.81765 13.8612 6.36786L12.9875 7.58713ZM14.2052 8.82329C15.2002 10.2597 15.4111 12.1522 14.6567 13.817L16.023 14.4361C17.0005 12.2788 16.7259 9.82809 15.4383 7.96919L14.2052 8.82329ZM14.2742 7.88138L14.2432 7.91902L15.4003 8.87346L15.4314 8.83582L14.2742 7.88138ZM13.8081 14.9609L8.12481 11.6796L7.37481 12.9787L13.0581 16.2599L13.8081 14.9609ZM8.12481 11.6796L8.09896 11.6647L7.34896 12.9637L7.37482 12.9787L8.12481 11.6796ZM8.09896 11.6647L2.44152 8.39838L1.69152 9.69742L7.34896 12.9637L8.09896 11.6647Z" fill="#6F7782"/>
</svg>
