<svg width="18" height="18" viewBox="0 0 18 18" fill="none" xmlns="http://www.w3.org/2000/svg">
<path d="M12.3333 6.29167C12.6785 6.29167 12.9583 6.01185 12.9583 5.66667C12.9583 5.32149 12.6785 5.04167 12.3333 5.04167L5.66667 5.04167C5.32149 5.04167 5.04167 5.32149 5.04167 5.66667C5.04167 6.01185 5.32149 6.29167 5.66667 6.29167L12.3333 6.29167Z" fill="#6F7782"/>
<path d="M9.83333 8.375C9.48816 8.375 9.20833 8.65482 9.20833 9C9.20833 9.34518 9.48816 9.625 9.83333 9.625H12.3333C12.6785 9.625 12.9583 9.34518 12.9583 9C12.9583 8.65482 12.6785 8.375 12.3333 8.375H9.83333Z" fill="#6F7782"/>
<path fill-rule="evenodd" clip-rule="evenodd" d="M12.7196 0.978107C11.7678 0.874988 10.5682 0.874993 9.03771 0.875H8.96229C7.43185 0.874993 6.23218 0.874988 5.2804 0.978107C4.30912 1.08334 3.52213 1.30194 2.8502 1.79013C2.44341 2.08568 2.08568 2.44341 1.79013 2.8502C1.30194 3.52213 1.08334 4.30912 0.978107 5.2804C0.874988 6.23218 0.874993 7.43185 0.875 8.96229V9.00922C0.875 9.97593 0.875 10.8071 0.899474 11.5214C0.952963 13.0826 1.12191 14.2301 1.79013 15.1498C2.08567 15.5566 2.44341 15.9143 2.8502 16.2099C3.76991 16.8781 4.9174 17.047 6.4786 17.1005C7.19294 17.125 8.02409 17.125 8.99082 17.125H9.03773C10.5681 17.125 11.7678 17.125 12.7196 17.0219C13.6909 16.9167 14.4779 16.6981 15.1498 16.2099C15.5566 15.9143 15.9143 15.5566 16.2099 15.1498C16.6981 14.4779 16.9167 13.6909 17.0219 12.7196C17.125 11.7678 17.125 10.5682 17.125 9.03779V8.96227C17.125 7.43187 17.125 6.23216 17.0219 5.2804C16.9167 4.30912 16.6981 3.52213 16.2099 2.8502C15.9143 2.44341 15.5566 2.08567 15.1498 1.79013C14.4779 1.30194 13.6909 1.08334 12.7196 0.978107ZM3.58493 2.8014C4.00826 2.49383 4.55011 2.31454 5.41504 2.22083C6.29166 2.12586 7.42369 2.125 9 2.125C10.5763 2.125 11.7083 2.12586 12.585 2.22083C13.4499 2.31454 13.9917 2.49383 14.4151 2.8014C14.7157 3.01985 14.9802 3.28426 15.1986 3.58493C15.5062 4.00826 15.6855 4.55011 15.7792 5.41504C15.8741 6.29166 15.875 7.42369 15.875 9C15.875 10.5763 15.8741 11.7083 15.7792 12.585C15.6855 13.4499 15.5062 13.9917 15.1986 14.4151C14.9802 14.7157 14.7157 14.9802 14.4151 15.1986C13.9917 15.5062 13.4499 15.6855 12.585 15.7792C11.7083 15.8741 10.5763 15.875 9 15.875C8.29304 15.875 7.67351 15.875 7.12348 15.866C7.11984 15.4704 7.10753 15.1793 7.06601 14.9171C6.74127 12.8668 5.13323 11.2587 3.08292 10.934C2.82074 10.8925 2.52956 10.8802 2.13401 10.8765C2.12504 10.3265 2.125 9.70696 2.125 9C2.125 7.42369 2.12586 6.29166 2.22083 5.41504C2.31454 4.55011 2.49383 4.00826 2.8014 3.58493C3.01985 3.28426 3.28426 3.01985 3.58493 2.8014ZM5.8314 15.1126C5.85846 15.2835 5.86878 15.4813 5.87268 15.8188C4.73906 15.7407 4.08447 15.5615 3.58493 15.1986C3.28426 14.9802 3.01985 14.7157 2.8014 14.4151C2.43846 13.9155 2.25935 13.2609 2.1812 12.1273C2.51866 12.1312 2.71651 12.1415 2.88737 12.1686C4.40282 12.4086 5.59137 13.5972 5.8314 15.1126Z" fill="#6F7782"/>
</svg>
