<svg width="18" height="18" viewBox="0 0 18 18" fill="none" xmlns="http://www.w3.org/2000/svg">
<path d="M8.25 14.8333C8.25 15.2475 8.58578 15.5833 8.99999 15.5833C9.41421 15.5833 9.75 15.2476 9.75 14.8333L8.25 14.8333ZM9.75 3.16667C9.75 2.75245 9.41421 2.41667 9 2.41667C8.58579 2.41667 8.25 2.75245 8.25 3.16667H9.75ZM10.9231 6.10562C11.1302 6.46434 11.5889 6.58725 11.9477 6.38014C12.3064 6.17303 12.4293 5.71434 12.2222 5.35562L10.9231 6.10562ZM11.2597 5.18854L11.9092 4.81354V4.81354L11.2597 5.18854ZM8.275 8.73332L8.53391 8.02942H8.53391L8.275 8.73332ZM9.72508 9.26668L9.98399 8.56279V8.56279L9.72508 9.26668ZM6.74039 12.8115L6.09088 13.1865L6.09088 13.1865L6.74039 12.8115ZM7.07694 11.8944C6.86984 11.5357 6.41114 11.4128 6.05242 11.6199C5.6937 11.827 5.5708 12.2857 5.7779 12.6444L7.07694 11.8944ZM10.1065 13.7134L9.73152 13.0639L10.1065 13.7134ZM7.89357 4.28659L8.26857 4.93611L7.89357 4.28659ZM3.21756 15.7042L3.6584 15.0975L3.21756 15.7042ZM2.29576 14.7824L2.90253 14.3416L2.29576 14.7824ZM15.7042 14.7824L15.0975 14.3416L15.7042 14.7824ZM14.7824 15.7042L14.3416 15.0975L14.7824 15.7042ZM14.7824 2.29576L14.3416 2.90253L14.7824 2.29576ZM15.7042 3.21756L15.0975 3.6584L15.7042 3.21756ZM3.21756 2.29576L3.6584 2.90253L3.21756 2.29576ZM2.29576 3.21756L2.90253 3.6584L2.29576 3.21756ZM12.2222 5.35562L11.9092 4.81354L10.6102 5.56354L10.9231 6.10562L12.2222 5.35562ZM7.38991 12.4365L7.07694 11.8944L5.7779 12.6444L6.09088 13.1865L7.38991 12.4365ZM9.46618 9.97058C10.8302 10.4723 10.9901 12.3372 9.73152 13.0639L10.4815 14.3629C12.8415 13.0004 12.5416 9.50351 9.98399 8.56279L9.46618 9.97058ZM7.51857 3.63707C5.15856 4.99962 5.45852 8.49649 8.0161 9.43721L8.53391 8.02942C7.16991 7.52772 7.00994 5.66278 8.26857 4.93611L7.51857 3.63707ZM9 15.75C7.42091 15.75 6.29683 15.749 5.4285 15.6549C4.57421 15.5623 4.05688 15.387 3.6584 15.0975L2.77672 16.311C3.47352 16.8173 4.28502 17.0398 5.26693 17.1462C6.23481 17.251 7.45432 17.25 9 17.25V15.75ZM0.75 9C0.75 10.5457 0.748971 11.7652 0.853834 12.7331C0.960218 13.715 1.18275 14.5265 1.689 15.2233L2.90253 14.3416C2.61301 13.9431 2.43766 13.4258 2.34511 12.5715C2.25103 11.7032 2.25 10.5791 2.25 9H0.75ZM3.6584 15.0975C3.36834 14.8867 3.11326 14.6317 2.90253 14.3416L1.689 15.2233C1.99226 15.6407 2.35932 16.0077 2.77672 16.311L3.6584 15.0975ZM15.75 9C15.75 10.5791 15.749 11.7032 15.6549 12.5715C15.5623 13.4258 15.387 13.9431 15.0975 14.3416L16.311 15.2233C16.8173 14.5265 17.0398 13.715 17.1462 12.7331C17.251 11.7652 17.25 10.5457 17.25 9H15.75ZM9 17.25C10.5457 17.25 11.7652 17.251 12.7331 17.1462C13.715 17.0398 14.5265 16.8173 15.2233 16.311L14.3416 15.0975C13.9431 15.387 13.4258 15.5623 12.5715 15.6549C11.7032 15.749 10.5791 15.75 9 15.75V17.25ZM15.0975 14.3416C14.8867 14.6317 14.6317 14.8867 14.3416 15.0975L15.2233 16.311C15.6407 16.0077 16.0077 15.6407 16.311 15.2233L15.0975 14.3416ZM9 2.25C10.5791 2.25 11.7032 2.25103 12.5715 2.34511C13.4258 2.43766 13.9431 2.61301 14.3416 2.90253L15.2233 1.689C14.5265 1.18275 13.715 0.960218 12.7331 0.853834C11.7652 0.748971 10.5457 0.75 9 0.75V2.25ZM17.25 9C17.25 7.45432 17.251 6.23481 17.1462 5.26693C17.0398 4.28502 16.8173 3.47352 16.311 2.77672L15.0975 3.6584C15.387 4.05688 15.5623 4.57421 15.6549 5.4285C15.749 6.29683 15.75 7.42091 15.75 9H17.25ZM14.3416 2.90253C14.6317 3.11326 14.8867 3.36834 15.0975 3.6584L16.311 2.77672C16.0077 2.35932 15.6407 1.99226 15.2233 1.689L14.3416 2.90253ZM9 0.75C7.45432 0.75 6.23481 0.748971 5.26693 0.853834C4.28502 0.960218 3.47352 1.18275 2.77672 1.689L3.6584 2.90253C4.05688 2.61301 4.57421 2.43766 5.4285 2.34511C6.29683 2.25103 7.42091 2.25 9 2.25V0.75ZM2.25 9C2.25 7.42091 2.25103 6.29683 2.34511 5.4285C2.43766 4.57421 2.61301 4.05688 2.90253 3.6584L1.689 2.77672C1.18275 3.47352 0.960218 4.28502 0.853834 5.26693C0.748971 6.23481 0.75 7.45432 0.75 9H2.25ZM2.77672 1.689C2.35932 1.99226 1.99226 2.35932 1.689 2.77672L2.90253 3.6584C3.11326 3.36834 3.36834 3.11326 3.6584 2.90253L2.77672 1.689ZM11.9092 4.81354C11.2846 3.73173 10.1267 3.1516 8.96237 3.21008L9.03763 4.70819C9.66176 4.67684 10.2779 4.98802 10.6102 5.56354L11.9092 4.81354ZM8.96237 3.21008C8.46877 3.23488 7.97385 3.37422 7.51857 3.63707L8.26857 4.93611C8.51315 4.7949 8.77601 4.72134 9.03763 4.70819L8.96237 3.21008ZM9.75 3.95914V3.16667H8.25V3.95914H9.75ZM9.75004 8.99999L9.75 3.95913L8.25 3.95915L8.25004 9.00001L9.75004 8.99999ZM8.0161 9.43721L8.74114 9.7039L9.25895 8.29611L8.53391 8.02942L8.0161 9.43721ZM8.74114 9.7039L9.46618 9.97058L9.98399 8.56279L9.25895 8.29611L8.74114 9.7039ZM9.75 14.8333L9.75001 14.0409L8.25001 14.0409L8.25 14.8333L9.75 14.8333ZM9.75001 14.0409L9.75004 9.00001L8.25004 9L8.25001 14.0409L9.75001 14.0409ZM9.73152 13.0639C9.48691 13.2051 9.22404 13.2787 8.9624 13.2918L9.03761 14.7899C9.53125 14.7651 10.0262 14.6258 10.4815 14.3629L9.73152 13.0639ZM8.9624 13.2918C8.33829 13.3231 7.72218 13.012 7.38991 12.4365L6.09088 13.1865C6.71544 14.2682 7.87336 14.8484 9.03761 14.7899L8.9624 13.2918Z" fill="#6F7782"/>
</svg>
