<svg width="13" height="16" viewBox="0 0 13 16" fill="none" xmlns="http://www.w3.org/2000/svg">
<path d="M3.01416 9.14279H7.58559V10.2856H3.01416V9.14279ZM3.01416 6.28564H9.8713V7.4285C7.19342 7.4285 5.69204 7.4285 3.01416 7.4285V6.28564ZM3.01416 11.9999H5.8713V13.1428H3.01416V11.9999Z" fill="white"/>
<path d="M11.5856 1.71429H9.87127V1.14286C9.87127 0.839753 9.75086 0.549062 9.53653 0.334735C9.3222 0.120408 9.03152 0 8.72841 0H4.15698C3.85388 0 3.56319 0.120408 3.34886 0.334735C3.13453 0.549062 3.01413 0.839753 3.01413 1.14286V1.71429H1.29984C0.996735 1.71429 0.706045 1.83469 0.491717 2.04902C0.27739 2.26335 0.156982 2.55404 0.156982 2.85714V14.8571C0.156982 15.1602 0.27739 15.4509 0.491717 15.6653C0.706045 15.8796 0.996735 16 1.29984 16H11.5856C11.8887 16 12.1793 15.8796 12.3937 15.6653C12.608 15.4509 12.7284 15.1602 12.7284 14.8571V2.85714C12.7284 2.55404 12.608 2.26335 12.3937 2.04902C12.1793 1.83469 11.8887 1.71429 11.5856 1.71429ZM4.15698 1.14286H8.72841V3.42857H4.15698V1.14286ZM11.5856 14.8571H1.29984V2.85714H3.01413V4.57143H9.87127V2.85714H11.5856V14.8571Z" fill="white"/>
</svg>
