<svg width="17" height="21" viewBox="0 0 17 21" fill="none" xmlns="http://www.w3.org/2000/svg">
<path d="M4.1571 11.9284H9.87139V13.3569H4.1571V11.9284ZM4.1571 8.35693H12.7285V9.7855C9.38118 9.7855 7.50446 9.7855 4.1571 9.7855V8.35693ZM4.1571 15.4998H7.72853V16.9284H4.1571V15.4998Z" fill="#003D6A"/>
<path d="M14.8713 2.64286H12.7284V1.92857C12.7284 1.54969 12.5779 1.18633 12.31 0.918419C12.0421 0.65051 11.6787 0.5 11.2999 0.5H5.58557C5.20669 0.5 4.84333 0.65051 4.57542 0.918419C4.30751 1.18633 4.157 1.54969 4.157 1.92857V2.64286H2.01414C1.63526 2.64286 1.2719 2.79337 1.00399 3.06128C0.736081 3.32919 0.585571 3.69255 0.585571 4.07143V19.0714C0.585571 19.4503 0.736081 19.8137 1.00399 20.0816C1.2719 20.3495 1.63526 20.5 2.01414 20.5H14.8713C15.2502 20.5 15.6135 20.3495 15.8814 20.0816C16.1493 19.8137 16.2999 19.4503 16.2999 19.0714V4.07143C16.2999 3.69255 16.1493 3.32919 15.8814 3.06128C15.6135 2.79337 15.2502 2.64286 14.8713 2.64286ZM5.58557 1.92857H11.2999V4.78571H5.58557V1.92857ZM14.8713 19.0714H2.01414V4.07143H4.157V6.21429H12.7284V4.07143H14.8713V19.0714Z" fill="#003D6A"/>
</svg>
