<svg width="20" height="21" viewBox="0 0 20 21" fill="none" xmlns="http://www.w3.org/2000/svg">
<path d="M0.859375 10.4999C0.859375 10.9141 1.19516 11.2499 1.60938 11.2499C2.02359 11.2499 2.35938 10.9141 2.35938 10.4999H0.859375ZM19.026 10.4999C19.026 10.0857 18.6903 9.74992 18.276 9.74992C17.8618 9.74992 17.526 10.0857 17.526 10.4999H19.026ZM4.17945 15.4288C3.91007 15.1142 3.43662 15.0775 3.12196 15.3469C2.80731 15.6162 2.77061 16.0897 3.03999 16.4043L4.17945 15.4288ZM15.706 5.57101C15.9753 5.88566 16.4488 5.92236 16.7635 5.65298C17.0781 5.3836 17.1148 4.91015 16.8454 4.5955L15.706 5.57101ZM17.906 1.32991C17.9042 0.915696 17.5669 0.581411 17.1527 0.583259C16.7385 0.585108 16.4042 0.922389 16.4061 1.3366L17.906 1.32991ZM17.1634 2.98801L17.9134 2.98467V2.98467L17.1634 2.98801ZM14.0968 6.05468L14.0934 6.80467H14.0934L14.0968 6.05468ZM12.4454 5.2973C12.0311 5.29546 11.6939 5.62974 11.692 6.04395C11.6902 6.45816 12.0244 6.79544 12.4387 6.79729L12.4454 5.2973ZM16.823 5.41881L17.4161 5.87783L17.4161 5.87783L16.823 5.41881ZM16.5276 5.71422L16.9866 6.30735L16.9866 6.30735L16.5276 5.71422ZM1.91092 19.6029C1.91277 20.0171 2.25005 20.3514 2.66426 20.3496C3.07847 20.3477 3.41275 20.0104 3.4109 19.5962L1.91092 19.6029ZM2.65353 17.9448L1.90354 17.9482L2.65353 17.9448ZM5.7202 14.8781L5.72354 14.1282L5.7202 14.8781ZM7.37161 15.6355C7.78582 15.6374 8.1231 15.3031 8.12495 14.8889C8.1268 14.4747 7.79251 14.1374 7.3783 14.1355L7.37161 15.6355ZM2.99399 15.514L2.40086 15.055L2.40086 15.055L2.99399 15.514ZM3.2894 15.2186L2.83038 14.6255H2.83038L3.2894 15.2186ZM9.94271 1.41659C4.92612 1.41659 0.859375 5.48333 0.859375 10.4999H2.35938C2.35938 6.31176 5.75455 2.91659 9.94271 2.91659V1.41659ZM9.94271 19.5833C14.9593 19.5833 19.026 15.5165 19.026 10.4999H17.526C17.526 14.6881 14.1309 18.0833 9.94271 18.0833V19.5833ZM3.03999 16.4043C4.7048 18.3489 7.18001 19.5833 9.94271 19.5833V18.0833C7.63657 18.0833 5.57144 17.0548 4.17945 15.4288L3.03999 16.4043ZM16.8454 4.5955C15.1806 2.65089 12.7054 1.41659 9.94271 1.41659V2.91659C12.2488 2.91659 14.314 3.94507 15.706 5.57101L16.8454 4.5955ZM16.4061 1.3366L16.4134 2.99136L17.9134 2.98467L17.906 1.32991L16.4061 1.3366ZM14.1001 5.30469L12.4454 5.2973L12.4387 6.79729L14.0934 6.80467L14.1001 5.30469ZM16.4134 2.99136C16.4165 3.66881 16.4173 4.11353 16.3808 4.4476C16.346 4.76659 16.2851 4.8884 16.2298 4.95979L17.4161 5.87783C17.7101 5.49788 17.8224 5.06411 17.872 4.61044C17.9199 4.17187 17.9163 3.62685 17.9134 2.98467L16.4134 2.99136ZM14.0934 6.80467C14.7356 6.80754 15.2806 6.8111 15.7192 6.76321C16.1729 6.71367 16.6066 6.60139 16.9866 6.30735L16.0685 5.12109C15.9972 5.17634 15.8753 5.23724 15.5564 5.27207C15.2223 5.30856 14.7776 5.30771 14.1001 5.30469L14.0934 6.80467ZM16.2298 4.95979C16.1831 5.02017 16.1289 5.07436 16.0685 5.1211L16.9866 6.30735C17.1474 6.18292 17.2917 6.03861 17.4161 5.87783L16.2298 4.95979ZM3.4109 19.5962L3.40352 17.9415L1.90354 17.9482L1.91092 19.6029L3.4109 19.5962ZM5.71685 15.6281L7.37161 15.6355L7.3783 14.1355L5.72354 14.1282L5.71685 15.6281ZM3.40352 17.9415C3.4005 17.264 3.39965 16.8193 3.43613 16.4852C3.47097 16.1662 3.53187 16.0444 3.58711 15.973L2.40086 15.055C2.10682 15.4349 1.99454 15.8687 1.945 16.3224C1.8971 16.761 1.90067 17.306 1.90354 17.9482L3.40352 17.9415ZM5.72354 14.1282C5.08136 14.1253 4.53634 14.1217 4.09777 14.1696C3.6441 14.2192 3.21033 14.3314 2.83038 14.6255L3.74842 15.8117C3.81981 15.7565 3.94161 15.6956 4.2606 15.6608C4.59468 15.6243 5.03939 15.6251 5.71685 15.6281L5.72354 14.1282ZM3.58711 15.973C3.63385 15.9127 3.68803 15.8585 3.74842 15.8117L2.83038 14.6255C2.6696 14.7499 2.52529 14.8942 2.40086 15.055L3.58711 15.973Z" fill="white"/>
</svg>
