<svg width="18" height="19" viewBox="0 0 18 19" fill="none" xmlns="http://www.w3.org/2000/svg">
<path d="M6.33258 15.5618L5.79221 16.0819L5.79221 16.0819L6.33258 15.5618ZM6.32599 15.555L5.78851 16.0781L6.32599 15.555ZM5.7334 15.3029L5.73754 14.5529L5.7334 15.3029ZM12.2666 15.3029L12.2625 14.5529L12.2666 15.3029ZM11.6674 15.5618L11.1271 15.0417L11.6674 15.5618ZM11.674 15.555L12.2115 16.0781L11.674 15.555ZM11.4016 15.838L11.942 16.3581L11.4016 15.838ZM6.59838 15.838L7.13874 15.3179L7.13874 15.3179L6.59838 15.838ZM9 17.5965V18.3465V17.5965ZM1.50024 11.1812L0.750286 11.1893L1.50024 11.1812ZM5.6217 15.3026L5.61361 16.0526L5.6217 15.3026ZM16.4998 11.1812L17.2497 11.1893L16.4998 11.1812ZM12.3783 15.3026L12.3864 16.0526L12.3783 15.3026ZM14.3302 2.17618L13.9708 2.83443L14.3302 2.17618ZM15.9903 3.8363L15.3321 4.19573L15.9903 3.8363ZM3.66979 2.17618L4.02923 2.83443L3.66979 2.17618ZM2.00967 3.8363L2.66793 4.19573L2.00967 3.8363ZM3.39144 14.6274L2.9814 15.2554L3.39144 14.6274ZM14.6086 14.6274L15.0186 15.2554L14.6086 14.6274ZM11.5833 6.6665C11.5833 8.09324 10.4267 9.24984 9 9.24984V10.7498C11.2552 10.7498 13.0833 8.92167 13.0833 6.6665H11.5833ZM9 9.24984C7.57326 9.24984 6.41667 8.09324 6.41667 6.6665H4.91667C4.91667 8.92167 6.74484 10.7498 9 10.7498V9.24984ZM6.41667 6.6665C6.41667 5.23977 7.57326 4.08317 9 4.08317V2.58317C6.74484 2.58317 4.91667 4.41134 4.91667 6.6665H6.41667ZM9 4.08317C10.4267 4.08317 11.5833 5.23977 11.5833 6.6665H13.0833C13.0833 4.41134 11.2552 2.58317 9 2.58317V4.08317ZM8.31818 2.4165H9.68182V0.916504H8.31818V2.4165ZM15.75 8.48469V11.079H17.25V8.48469H15.75ZM2.25 11.0789V8.48468H0.75V11.0789H2.25ZM11.1271 15.0417L10.8613 15.3179L11.942 16.3581L12.2078 16.0819L11.1271 15.0417ZM7.13874 15.3179L6.87294 15.0417L5.79221 16.0819L6.05801 16.3581L7.13874 15.3179ZM6.87294 15.0417C6.8703 15.039 6.86689 15.0354 6.86348 15.0319L5.78851 16.0781C5.78831 16.0779 5.78822 16.0778 5.79221 16.0819L6.87294 15.0417ZM5.72392 16.0529C5.72953 16.0529 5.72951 16.0529 5.72925 16.0529L5.73754 14.5529C5.73268 14.5529 5.72787 14.5529 5.72392 14.5529V16.0529ZM6.86348 15.0319C6.56752 14.7278 6.16188 14.5552 5.73754 14.5529L5.72925 16.0529C5.75158 16.053 5.77293 16.0621 5.78851 16.0781L6.86348 15.0319ZM12.2761 14.5529C12.2721 14.5529 12.2673 14.5529 12.2625 14.5529L12.2707 16.0529C12.2705 16.0529 12.2705 16.0529 12.2761 16.0529V14.5529ZM12.2078 16.0819C12.2115 16.078 12.2116 16.0779 12.2115 16.0781L11.1365 15.0319C11.1332 15.0354 11.13 15.0387 11.1271 15.0417L12.2078 16.0819ZM12.2625 14.5529C11.8381 14.5552 11.4325 14.7278 11.1365 15.0319L12.2115 16.0781C12.2271 16.0621 12.2484 16.053 12.2707 16.0529L12.2625 14.5529ZM10.8613 15.3179C10.2821 15.9196 9.89971 16.3145 9.57846 16.5685C9.27427 16.809 9.1175 16.8465 9 16.8465V18.3465C9.59159 18.3465 10.0714 18.0909 10.5087 17.7452C10.9289 17.413 11.3928 16.9287 11.942 16.3581L10.8613 15.3179ZM6.05801 16.3581C6.6072 16.9287 7.0711 17.413 7.49129 17.7452C7.92855 18.0909 8.40841 18.3465 9 18.3465V16.8465C8.8825 16.8465 8.72573 16.809 8.42154 16.5685C8.10029 16.3145 7.71792 15.9196 7.13874 15.3179L6.05801 16.3581ZM0.75 11.0789C0.75 11.1301 0.749989 11.1617 0.750286 11.1893L2.2502 11.1731C2.25001 11.1557 2.25 11.1341 2.25 11.0789H0.75ZM5.72392 14.5529C5.66878 14.5529 5.6472 14.5529 5.62979 14.5527L5.61361 16.0526C5.64116 16.0529 5.67275 16.0529 5.72392 16.0529V14.5529ZM15.75 11.079C15.75 11.134 15.75 11.1557 15.7498 11.1731L17.2497 11.1893C17.25 11.1617 17.25 11.1302 17.25 11.079H15.75ZM12.2761 16.0529C12.3273 16.0529 12.3588 16.0529 12.3864 16.0526L12.3702 14.5527C12.3528 14.5529 12.3312 14.5529 12.2761 14.5529V16.0529ZM9.68182 2.4165C10.9333 2.4165 11.8241 2.41716 12.52 2.47742C13.2064 2.53685 13.6329 2.64996 13.9708 2.83443L14.6896 1.51792C14.0941 1.19272 13.4347 1.051 12.6494 0.983008C11.8737 0.915849 10.907 0.916504 9.68182 0.916504V2.4165ZM17.25 8.48469C17.25 7.25951 17.2507 6.29277 17.1835 5.51707C17.1155 4.7318 16.9738 4.07241 16.6486 3.47686L15.3321 4.19573C15.5165 4.53358 15.6297 4.96006 15.6891 5.64646C15.7493 6.34244 15.75 7.2332 15.75 8.48469H17.25ZM13.9708 2.83443C14.5456 3.14834 15.0182 3.62087 15.3321 4.19573L16.6486 3.47686C16.1969 2.64961 15.5169 1.96963 14.6896 1.51792L13.9708 2.83443ZM8.31818 0.916504C7.093 0.916504 6.12627 0.915849 5.35057 0.983008C4.56529 1.051 3.9059 1.19272 3.31036 1.51792L4.02923 2.83443C4.36708 2.64996 4.79355 2.53685 5.47996 2.47742C6.17594 2.41716 7.0667 2.4165 8.31818 2.4165V0.916504ZM2.25 8.48468C2.25 7.2332 2.25066 6.34244 2.31091 5.64646C2.37034 4.96006 2.48345 4.53358 2.66793 4.19573L1.35141 3.47686C1.02622 4.07241 0.884494 4.7318 0.816504 5.51707C0.749345 6.29277 0.75 7.2595 0.75 8.48468H2.25ZM3.31036 1.51792C2.48311 1.96963 1.80313 2.64961 1.35141 3.47686L2.66793 4.19573C2.98183 3.62087 3.45436 3.14834 4.02923 2.83443L3.31036 1.51792ZM6.5 13.2498H11.5V11.7498H6.5V13.2498ZM6.5 11.7498C4.76456 11.7498 3.28376 12.8322 2.69227 14.356L4.09062 14.8988C4.46563 13.9327 5.404 13.2498 6.5 13.2498V11.7498ZM0.750286 11.1893C0.768676 12.8932 1.65324 14.3881 2.9814 15.2554L3.80149 13.9994C2.87551 13.3948 2.26296 12.3559 2.2502 11.1731L0.750286 11.1893ZM2.9814 15.2554C3.73983 15.7506 4.64395 16.0421 5.61361 16.0526L5.62979 14.5527C4.95421 14.5454 4.32774 14.343 3.80149 13.9994L2.9814 15.2554ZM11.5 13.2498C12.596 13.2498 13.5344 13.9327 13.9094 14.8988L15.3077 14.356C14.7162 12.8322 13.2354 11.7498 11.5 11.7498V13.2498ZM15.7498 11.1731C15.737 12.3559 15.1245 13.3948 14.1985 13.9994L15.0186 15.2554C16.3468 14.3881 17.2313 12.8932 17.2497 11.1893L15.7498 11.1731ZM14.1985 13.9994C13.6723 14.343 13.0458 14.5454 12.3702 14.5527L12.3864 16.0526C13.3561 16.0421 14.2602 15.7506 15.0186 15.2554L14.1985 13.9994Z" fill="#6F7782"/>
</svg>
