<svg width="42" height="39" viewBox="0 0 42 39" fill="none" xmlns="http://www.w3.org/2000/svg">
<path d="M5.79682 35.4168L6.6785 34.2033L5.79682 35.4168ZM2.03074 28.8938L3.52252 28.737L2.03074 28.8938ZM33.6918 14.963L34.9908 14.213L33.6918 14.963ZM39.6928 28.8938L41.1846 29.0506L39.6928 28.8938ZM35.9267 35.4168L36.8084 36.6303L35.9267 35.4168ZM24.6279 2.8005L24.0178 4.17082L24.6279 2.8005ZM17.0957 2.8005L17.7058 4.17082L17.0957 2.8005ZM22.3618 11.2593C22.3618 10.4308 21.6902 9.75926 20.8618 9.75926C20.0334 9.75926 19.3618 10.4308 19.3618 11.2593H22.3618ZM19.3618 22.3704C19.3618 23.1988 20.0334 23.8704 20.8618 23.8704C21.6902 23.8704 22.3618 23.1988 22.3618 22.3704H19.3618ZM20.8618 35.6852C16.6219 35.6852 13.5459 35.6837 11.2213 35.4704C8.88891 35.2564 7.56116 34.8446 6.6785 34.2033L4.91514 36.6303C6.46642 37.7574 8.46081 38.2298 10.9472 38.4579C13.4414 38.6867 16.681 38.6852 20.8618 38.6852V35.6852ZM6.73274 14.213C4.64235 17.8336 3.02127 20.6384 1.97233 22.9129C0.926665 25.1802 0.338526 27.1436 0.538958 29.0506L3.52252 28.737C3.40848 27.6519 3.71569 26.2962 4.69658 24.1692C5.67419 22.0494 7.21086 19.3848 9.33081 15.713L6.73274 14.213ZM6.6785 34.2033C4.89944 32.9107 3.75239 30.924 3.52252 28.737L0.538958 29.0506C0.857694 32.0831 2.44823 34.838 4.91514 36.6303L6.6785 34.2033ZM32.3927 15.713C34.5127 19.3848 36.0494 22.0494 37.027 24.1692C38.0079 26.2962 38.3151 27.6519 38.201 28.737L41.1846 29.0506C41.385 27.1436 40.7969 25.1802 39.7512 22.9129C38.7023 20.6384 37.0812 17.8336 34.9908 14.213L32.3927 15.713ZM20.8618 38.6852C25.0425 38.6852 28.2821 38.6867 30.7763 38.4579C33.2627 38.2298 35.2571 37.7574 36.8084 36.6303L35.0451 34.2033C34.1624 34.8446 32.8347 35.2564 30.5022 35.4704C28.1776 35.6837 25.1017 35.6852 20.8618 35.6852V38.6852ZM38.201 28.737C37.9712 30.924 36.8241 32.9107 35.0451 34.2033L36.8084 36.6303C39.2753 34.838 40.8659 32.0831 41.1846 29.0506L38.201 28.737ZM34.9908 14.213C32.9004 10.5923 31.282 7.78601 29.8367 5.74037C28.3959 3.70112 26.9897 2.2101 25.238 1.43019L24.0178 4.17082C25.0145 4.61458 26.035 5.55853 27.3865 7.47146C28.7335 9.378 30.2728 12.0411 32.3927 15.713L34.9908 14.213ZM9.33081 15.713C11.4508 12.0411 12.99 9.378 14.337 7.47146C15.6886 5.55853 16.7091 4.61458 17.7058 4.17082L16.4856 1.43019C14.7339 2.2101 13.3276 3.70112 11.8869 5.74037C10.4416 7.78601 8.82312 10.5923 6.73274 14.213L9.33081 15.713ZM25.238 1.43019C22.4523 0.189938 19.2712 0.189938 16.4856 1.43019L17.7058 4.17082C19.7147 3.27639 22.0088 3.27639 24.0178 4.17082L25.238 1.43019ZM19.3618 11.2593V22.3704H22.3618V11.2593H19.3618Z" fill="#F06A6A"/>
</svg>
