<svg width="11" height="11" viewBox="0 0 11 11" fill="none" xmlns="http://www.w3.org/2000/svg">
<path d="M1.30645 0.303168C1.01356 0.0102748 0.538686 0.0102748 0.245793 0.303168C-0.0471003 0.596061 -0.0471002 1.07094 0.245793 1.36383L1.30645 0.303168ZM9.57913 10.6972C9.87202 10.9901 10.3469 10.9901 10.6398 10.6972C10.9327 10.4043 10.9327 9.92939 10.6398 9.6365L9.57913 10.6972ZM0.245811 9.6365C-0.0470822 9.92939 -0.0470823 10.4043 0.245811 10.6972C0.538704 10.9901 1.01358 10.9901 1.30647 10.6972L0.245811 9.6365ZM10.6398 1.36383C10.9327 1.07093 10.9327 0.596059 10.6398 0.303166C10.3469 0.0102728 9.87204 0.0102727 9.57915 0.303166L10.6398 1.36383ZM5.44281 5.50016L4.91248 4.96983L5.44281 5.50016ZM0.245793 1.36383L9.57913 10.6972L10.6398 9.6365L1.30645 0.303168L0.245793 1.36383ZM1.30647 10.6972L5.97314 6.03049L4.91248 4.96983L0.245811 9.6365L1.30647 10.6972ZM5.97314 6.03049L10.6398 1.36383L9.57915 0.303166L4.91248 4.96983L5.97314 6.03049Z" fill="#6F7782"/>
</svg>
